G04 #@! TF.GenerationSoftware,KiCad,Pcbnew,(6.0.5)*
G04 #@! TF.CreationDate,2023-06-30T16:23:22+09:00*
G04 #@! TF.ProjectId,Varanidae,56617261-6e69-4646-9165-2e6b69636164,rev?*
G04 #@! TF.SameCoordinates,Original*
G04 #@! TF.FileFunction,Legend,Bot*
G04 #@! TF.FilePolarity,Positive*
%FSLAX46Y46*%
G04 Gerber Fmt 4.6, Leading zero omitted, Abs format (unit mm)*
G04 Created by KiCad (PCBNEW (6.0.5)) date 2023-06-30 16:23:22*
%MOMM*%
%LPD*%
G01*
G04 APERTURE LIST*
%ADD10C,0.150000*%
%ADD11C,0.381000*%
%ADD12R,1.525000X1.525000*%
%ADD13C,1.525000*%
G04 APERTURE END LIST*
D10*
X208667309Y-127331732D02*
X208553023Y-127369827D01*
X208514928Y-127407922D01*
X208476833Y-127484113D01*
X208476833Y-127598398D01*
X208514928Y-127674589D01*
X208553023Y-127712684D01*
X208629214Y-127750779D01*
X208933976Y-127750779D01*
X208933976Y-126950779D01*
X208667309Y-126950779D01*
X208591119Y-126988875D01*
X208553023Y-127026970D01*
X208514928Y-127103160D01*
X208514928Y-127179351D01*
X208553023Y-127255541D01*
X208591119Y-127293636D01*
X208667309Y-127331732D01*
X208933976Y-127331732D01*
X207791119Y-127217446D02*
X207791119Y-127750779D01*
X207981595Y-126912684D02*
X208172071Y-127484113D01*
X207676833Y-127484113D01*
X208933976Y-122670779D02*
X208933976Y-121870779D01*
X208743500Y-121870779D01*
X208629214Y-121908875D01*
X208553023Y-121985065D01*
X208514928Y-122061255D01*
X208476833Y-122213636D01*
X208476833Y-122327922D01*
X208514928Y-122480303D01*
X208553023Y-122556494D01*
X208629214Y-122632684D01*
X208743500Y-122670779D01*
X208933976Y-122670779D01*
X208210166Y-121870779D02*
X207676833Y-121870779D01*
X208019690Y-122670779D01*
X196718202Y-128823866D02*
X196623921Y-128776726D01*
X196576780Y-128776726D01*
X196506070Y-128800296D01*
X196435359Y-128871007D01*
X196411789Y-128941717D01*
X196411789Y-128988858D01*
X196435359Y-129059568D01*
X196623921Y-129248130D01*
X197118896Y-128753155D01*
X196953904Y-128588164D01*
X196883193Y-128564594D01*
X196836053Y-128564594D01*
X196765342Y-128588164D01*
X196718202Y-128635304D01*
X196694632Y-128706015D01*
X196694632Y-128753155D01*
X196718202Y-128823866D01*
X196883193Y-128988858D01*
X196411789Y-128046049D02*
X196506070Y-128140330D01*
X196529640Y-128211040D01*
X196529640Y-128258181D01*
X196506070Y-128376032D01*
X196435359Y-128493883D01*
X196246797Y-128682445D01*
X196176087Y-128706015D01*
X196128946Y-128706015D01*
X196058235Y-128682445D01*
X195963955Y-128588164D01*
X195940384Y-128517453D01*
X195940384Y-128470313D01*
X195963955Y-128399602D01*
X196081806Y-128281751D01*
X196152516Y-128258181D01*
X196199657Y-128258181D01*
X196270367Y-128281751D01*
X196364648Y-128376032D01*
X196388219Y-128446742D01*
X196388219Y-128493883D01*
X196364648Y-128564594D01*
X208953023Y-106668875D02*
X209029214Y-106630779D01*
X209143500Y-106630779D01*
X209257785Y-106668875D01*
X209333976Y-106745065D01*
X209372071Y-106821255D01*
X209410166Y-106973636D01*
X209410166Y-107087922D01*
X209372071Y-107240303D01*
X209333976Y-107316494D01*
X209257785Y-107392684D01*
X209143500Y-107430779D01*
X209067309Y-107430779D01*
X208953023Y-107392684D01*
X208914928Y-107354589D01*
X208914928Y-107087922D01*
X209067309Y-107087922D01*
X208572071Y-107430779D02*
X208572071Y-106630779D01*
X208114928Y-107430779D01*
X208114928Y-106630779D01*
X207733976Y-107430779D02*
X207733976Y-106630779D01*
X207543500Y-106630779D01*
X207429214Y-106668875D01*
X207353023Y-106745065D01*
X207314928Y-106821255D01*
X207276833Y-106973636D01*
X207276833Y-107087922D01*
X207314928Y-107240303D01*
X207353023Y-107316494D01*
X207429214Y-107392684D01*
X207543500Y-107430779D01*
X207733976Y-107430779D01*
X197745309Y-122251732D02*
X197631023Y-122289827D01*
X197592928Y-122327922D01*
X197554833Y-122404113D01*
X197554833Y-122518398D01*
X197592928Y-122594589D01*
X197631023Y-122632684D01*
X197707214Y-122670779D01*
X198011976Y-122670779D01*
X198011976Y-121870779D01*
X197745309Y-121870779D01*
X197669119Y-121908875D01*
X197631023Y-121946970D01*
X197592928Y-122023160D01*
X197592928Y-122099351D01*
X197631023Y-122175541D01*
X197669119Y-122213636D01*
X197745309Y-122251732D01*
X198011976Y-122251732D01*
X196792928Y-122670779D02*
X197250071Y-122670779D01*
X197021500Y-122670779D02*
X197021500Y-121870779D01*
X197097690Y-121985065D01*
X197173880Y-122061255D01*
X197250071Y-122099351D01*
X208933976Y-104890779D02*
X208933976Y-104090779D01*
X208743500Y-104090779D01*
X208629214Y-104128875D01*
X208553023Y-104205065D01*
X208514928Y-104281255D01*
X208476833Y-104433636D01*
X208476833Y-104547922D01*
X208514928Y-104700303D01*
X208553023Y-104776494D01*
X208629214Y-104852684D01*
X208743500Y-104890779D01*
X208933976Y-104890779D01*
X208172071Y-104166970D02*
X208133976Y-104128875D01*
X208057785Y-104090779D01*
X207867309Y-104090779D01*
X207791119Y-104128875D01*
X207753023Y-104166970D01*
X207714928Y-104243160D01*
X207714928Y-104319351D01*
X207753023Y-104433636D01*
X208210166Y-104890779D01*
X207714928Y-104890779D01*
X197688166Y-119711732D02*
X197954833Y-119711732D01*
X197954833Y-120130779D02*
X197954833Y-119330779D01*
X197573880Y-119330779D01*
X197345309Y-119330779D02*
X196811976Y-119330779D01*
X197154833Y-120130779D01*
X208476833Y-120054589D02*
X208514928Y-120092684D01*
X208629214Y-120130779D01*
X208705404Y-120130779D01*
X208819690Y-120092684D01*
X208895880Y-120016494D01*
X208933976Y-119940303D01*
X208972071Y-119787922D01*
X208972071Y-119673636D01*
X208933976Y-119521255D01*
X208895880Y-119445065D01*
X208819690Y-119368875D01*
X208705404Y-119330779D01*
X208629214Y-119330779D01*
X208514928Y-119368875D01*
X208476833Y-119406970D01*
X207791119Y-119330779D02*
X207943500Y-119330779D01*
X208019690Y-119368875D01*
X208057785Y-119406970D01*
X208133976Y-119521255D01*
X208172071Y-119673636D01*
X208172071Y-119978398D01*
X208133976Y-120054589D01*
X208095880Y-120092684D01*
X208019690Y-120130779D01*
X207867309Y-120130779D01*
X207791119Y-120092684D01*
X207753023Y-120054589D01*
X207714928Y-119978398D01*
X207714928Y-119787922D01*
X207753023Y-119711732D01*
X207791119Y-119673636D01*
X207867309Y-119635541D01*
X208019690Y-119635541D01*
X208095880Y-119673636D01*
X208133976Y-119711732D01*
X208172071Y-119787922D01*
X197688166Y-114631732D02*
X197954833Y-114631732D01*
X197954833Y-115050779D02*
X197954833Y-114250779D01*
X197573880Y-114250779D01*
X196888166Y-114250779D02*
X197269119Y-114250779D01*
X197307214Y-114631732D01*
X197269119Y-114593636D01*
X197192928Y-114555541D01*
X197002452Y-114555541D01*
X196926261Y-114593636D01*
X196888166Y-114631732D01*
X196850071Y-114707922D01*
X196850071Y-114898398D01*
X196888166Y-114974589D01*
X196926261Y-115012684D01*
X197002452Y-115050779D01*
X197192928Y-115050779D01*
X197269119Y-115012684D01*
X197307214Y-114974589D01*
X197688166Y-112091732D02*
X197954833Y-112091732D01*
X197954833Y-112510779D02*
X197954833Y-111710779D01*
X197573880Y-111710779D01*
X196926261Y-111977446D02*
X196926261Y-112510779D01*
X197116738Y-111672684D02*
X197307214Y-112244113D01*
X196811976Y-112244113D01*
X206012976Y-128720779D02*
X206012976Y-127920779D01*
X205822500Y-127920779D01*
X205708214Y-127958875D01*
X205632023Y-128035065D01*
X205593928Y-128111255D01*
X205555833Y-128263636D01*
X205555833Y-128377922D01*
X205593928Y-128530303D01*
X205632023Y-128606494D01*
X205708214Y-128682684D01*
X205822500Y-128720779D01*
X206012976Y-128720779D01*
X204832023Y-127920779D02*
X205212976Y-127920779D01*
X205251071Y-128301732D01*
X205212976Y-128263636D01*
X205136785Y-128225541D01*
X204946309Y-128225541D01*
X204870119Y-128263636D01*
X204832023Y-128301732D01*
X204793928Y-128377922D01*
X204793928Y-128568398D01*
X204832023Y-128644589D01*
X204870119Y-128682684D01*
X204946309Y-128720779D01*
X205136785Y-128720779D01*
X205212976Y-128682684D01*
X205251071Y-128644589D01*
X198615833Y-128508875D02*
X198849166Y-128508875D01*
X198849166Y-128875541D02*
X198849166Y-128175541D01*
X198515833Y-128175541D01*
X198115833Y-128175541D02*
X198049166Y-128175541D01*
X197982500Y-128208875D01*
X197949166Y-128242208D01*
X197915833Y-128308875D01*
X197882500Y-128442208D01*
X197882500Y-128608875D01*
X197915833Y-128742208D01*
X197949166Y-128808875D01*
X197982500Y-128842208D01*
X198049166Y-128875541D01*
X198115833Y-128875541D01*
X198182500Y-128842208D01*
X198215833Y-128808875D01*
X198249166Y-128742208D01*
X198282500Y-128608875D01*
X198282500Y-128442208D01*
X198249166Y-128308875D01*
X198215833Y-128242208D01*
X198182500Y-128208875D01*
X198115833Y-128175541D01*
X208933976Y-117590779D02*
X208933976Y-116790779D01*
X208743500Y-116790779D01*
X208629214Y-116828875D01*
X208553023Y-116905065D01*
X208514928Y-116981255D01*
X208476833Y-117133636D01*
X208476833Y-117247922D01*
X208514928Y-117400303D01*
X208553023Y-117476494D01*
X208629214Y-117552684D01*
X208743500Y-117590779D01*
X208933976Y-117590779D01*
X207791119Y-117057446D02*
X207791119Y-117590779D01*
X207981595Y-116752684D02*
X208172071Y-117324113D01*
X207676833Y-117324113D01*
X208644848Y-101550779D02*
X208187705Y-101550779D01*
X208416276Y-102350779D02*
X208416276Y-101550779D01*
X207997229Y-101550779D02*
X207463895Y-102350779D01*
X207463895Y-101550779D02*
X207997229Y-102350779D01*
X207006752Y-101550779D02*
X206930562Y-101550779D01*
X206854372Y-101588875D01*
X206816276Y-101626970D01*
X206778181Y-101703160D01*
X206740086Y-101855541D01*
X206740086Y-102046017D01*
X206778181Y-102198398D01*
X206816276Y-102274589D01*
X206854372Y-102312684D01*
X206930562Y-102350779D01*
X207006752Y-102350779D01*
X207082943Y-102312684D01*
X207121038Y-102274589D01*
X207159133Y-102198398D01*
X207197229Y-102046017D01*
X207197229Y-101855541D01*
X207159133Y-101703160D01*
X207121038Y-101626970D01*
X207082943Y-101588875D01*
X207006752Y-101550779D01*
X205825800Y-101512684D02*
X206511514Y-102541255D01*
X205559133Y-102350779D02*
X205559133Y-101550779D01*
X205368657Y-101550779D01*
X205254372Y-101588875D01*
X205178181Y-101665065D01*
X205140086Y-101741255D01*
X205101991Y-101893636D01*
X205101991Y-102007922D01*
X205140086Y-102160303D01*
X205178181Y-102236494D01*
X205254372Y-102312684D01*
X205368657Y-102350779D01*
X205559133Y-102350779D01*
X204835324Y-101550779D02*
X204340086Y-101550779D01*
X204606752Y-101855541D01*
X204492467Y-101855541D01*
X204416276Y-101893636D01*
X204378181Y-101931732D01*
X204340086Y-102007922D01*
X204340086Y-102198398D01*
X204378181Y-102274589D01*
X204416276Y-102312684D01*
X204492467Y-102350779D01*
X204721038Y-102350779D01*
X204797229Y-102312684D01*
X204835324Y-102274589D01*
X198488166Y-109170779D02*
X198221500Y-109970779D01*
X197954833Y-109170779D01*
X197231023Y-109894589D02*
X197269119Y-109932684D01*
X197383404Y-109970779D01*
X197459595Y-109970779D01*
X197573880Y-109932684D01*
X197650071Y-109856494D01*
X197688166Y-109780303D01*
X197726261Y-109627922D01*
X197726261Y-109513636D01*
X197688166Y-109361255D01*
X197650071Y-109285065D01*
X197573880Y-109208875D01*
X197459595Y-109170779D01*
X197383404Y-109170779D01*
X197269119Y-109208875D01*
X197231023Y-109246970D01*
X196431023Y-109894589D02*
X196469119Y-109932684D01*
X196583404Y-109970779D01*
X196659595Y-109970779D01*
X196773880Y-109932684D01*
X196850071Y-109856494D01*
X196888166Y-109780303D01*
X196926261Y-109627922D01*
X196926261Y-109513636D01*
X196888166Y-109361255D01*
X196850071Y-109285065D01*
X196773880Y-109208875D01*
X196659595Y-109170779D01*
X196583404Y-109170779D01*
X196469119Y-109208875D01*
X196431023Y-109246970D01*
X207665833Y-128508875D02*
X207565833Y-128542208D01*
X207532500Y-128575541D01*
X207499166Y-128642208D01*
X207499166Y-128742208D01*
X207532500Y-128808875D01*
X207565833Y-128842208D01*
X207632500Y-128875541D01*
X207899166Y-128875541D01*
X207899166Y-128175541D01*
X207665833Y-128175541D01*
X207599166Y-128208875D01*
X207565833Y-128242208D01*
X207532500Y-128308875D01*
X207532500Y-128375541D01*
X207565833Y-128442208D01*
X207599166Y-128475541D01*
X207665833Y-128508875D01*
X207899166Y-128508875D01*
X207265833Y-128175541D02*
X206799166Y-128175541D01*
X207099166Y-128875541D01*
X200609166Y-128301732D02*
X200875833Y-128301732D01*
X200875833Y-128720779D02*
X200875833Y-127920779D01*
X200494880Y-127920779D01*
X199771071Y-128720779D02*
X200228214Y-128720779D01*
X199999642Y-128720779D02*
X199999642Y-127920779D01*
X200075833Y-128035065D01*
X200152023Y-128111255D01*
X200228214Y-128149351D01*
X209447491Y-128423172D02*
X209400351Y-128517453D01*
X209400351Y-128564594D01*
X209423921Y-128635304D01*
X209494632Y-128706015D01*
X209565342Y-128729585D01*
X209612483Y-128729585D01*
X209683193Y-128706015D01*
X209871755Y-128517453D01*
X209376780Y-128022478D01*
X209211789Y-128187470D01*
X209188219Y-128258181D01*
X209188219Y-128305321D01*
X209211789Y-128376032D01*
X209258929Y-128423172D01*
X209329640Y-128446742D01*
X209376780Y-128446742D01*
X209447491Y-128423172D01*
X209612483Y-128258181D01*
X208646103Y-128753155D02*
X208881806Y-128517453D01*
X209141078Y-128729585D01*
X209093938Y-128729585D01*
X209023227Y-128753155D01*
X208905376Y-128871007D01*
X208881806Y-128941717D01*
X208881806Y-128988858D01*
X208905376Y-129059568D01*
X209023227Y-129177419D01*
X209093938Y-129200990D01*
X209141078Y-129200990D01*
X209211789Y-129177419D01*
X209329640Y-129059568D01*
X209353210Y-128988858D01*
X209353210Y-128941717D01*
X198031023Y-104128875D02*
X198107214Y-104090779D01*
X198221500Y-104090779D01*
X198335785Y-104128875D01*
X198411976Y-104205065D01*
X198450071Y-104281255D01*
X198488166Y-104433636D01*
X198488166Y-104547922D01*
X198450071Y-104700303D01*
X198411976Y-104776494D01*
X198335785Y-104852684D01*
X198221500Y-104890779D01*
X198145309Y-104890779D01*
X198031023Y-104852684D01*
X197992928Y-104814589D01*
X197992928Y-104547922D01*
X198145309Y-104547922D01*
X197650071Y-104890779D02*
X197650071Y-104090779D01*
X197192928Y-104890779D01*
X197192928Y-104090779D01*
X196811976Y-104890779D02*
X196811976Y-104090779D01*
X196621500Y-104090779D01*
X196507214Y-104128875D01*
X196431023Y-104205065D01*
X196392928Y-104281255D01*
X196354833Y-104433636D01*
X196354833Y-104547922D01*
X196392928Y-104700303D01*
X196431023Y-104776494D01*
X196507214Y-104852684D01*
X196621500Y-104890779D01*
X196811976Y-104890779D01*
X197688166Y-117171732D02*
X197954833Y-117171732D01*
X197954833Y-117590779D02*
X197954833Y-116790779D01*
X197573880Y-116790779D01*
X196926261Y-116790779D02*
X197078642Y-116790779D01*
X197154833Y-116828875D01*
X197192928Y-116866970D01*
X197269119Y-116981255D01*
X197307214Y-117133636D01*
X197307214Y-117438398D01*
X197269119Y-117514589D01*
X197231023Y-117552684D01*
X197154833Y-117590779D01*
X197002452Y-117590779D01*
X196926261Y-117552684D01*
X196888166Y-117514589D01*
X196850071Y-117438398D01*
X196850071Y-117247922D01*
X196888166Y-117171732D01*
X196926261Y-117133636D01*
X197002452Y-117095541D01*
X197154833Y-117095541D01*
X197231023Y-117133636D01*
X197269119Y-117171732D01*
X197307214Y-117247922D01*
X203015833Y-128644589D02*
X203053928Y-128682684D01*
X203168214Y-128720779D01*
X203244404Y-128720779D01*
X203358690Y-128682684D01*
X203434880Y-128606494D01*
X203472976Y-128530303D01*
X203511071Y-128377922D01*
X203511071Y-128263636D01*
X203472976Y-128111255D01*
X203434880Y-128035065D01*
X203358690Y-127958875D01*
X203244404Y-127920779D01*
X203168214Y-127920779D01*
X203053928Y-127958875D01*
X203015833Y-127996970D01*
X202749166Y-127920779D02*
X202215833Y-127920779D01*
X202558690Y-128720779D01*
X197745309Y-101931732D02*
X197631023Y-101969827D01*
X197592928Y-102007922D01*
X197554833Y-102084113D01*
X197554833Y-102198398D01*
X197592928Y-102274589D01*
X197631023Y-102312684D01*
X197707214Y-102350779D01*
X198011976Y-102350779D01*
X198011976Y-101550779D01*
X197745309Y-101550779D01*
X197669119Y-101588875D01*
X197631023Y-101626970D01*
X197592928Y-101703160D01*
X197592928Y-101779351D01*
X197631023Y-101855541D01*
X197669119Y-101893636D01*
X197745309Y-101931732D01*
X198011976Y-101931732D01*
X197059595Y-101550779D02*
X196983404Y-101550779D01*
X196907214Y-101588875D01*
X196869119Y-101626970D01*
X196831023Y-101703160D01*
X196792928Y-101855541D01*
X196792928Y-102046017D01*
X196831023Y-102198398D01*
X196869119Y-102274589D01*
X196907214Y-102312684D01*
X196983404Y-102350779D01*
X197059595Y-102350779D01*
X197135785Y-102312684D01*
X197173880Y-102274589D01*
X197211976Y-102198398D01*
X197250071Y-102046017D01*
X197250071Y-101855541D01*
X197211976Y-101703160D01*
X197173880Y-101626970D01*
X197135785Y-101588875D01*
X197059595Y-101550779D01*
X208895880Y-124791732D02*
X208629214Y-124791732D01*
X208514928Y-125210779D02*
X208895880Y-125210779D01*
X208895880Y-124410779D01*
X208514928Y-124410779D01*
X207829214Y-124410779D02*
X207981595Y-124410779D01*
X208057785Y-124448875D01*
X208095880Y-124486970D01*
X208172071Y-124601255D01*
X208210166Y-124753636D01*
X208210166Y-125058398D01*
X208172071Y-125134589D01*
X208133976Y-125172684D01*
X208057785Y-125210779D01*
X207905404Y-125210779D01*
X207829214Y-125172684D01*
X207791119Y-125134589D01*
X207753023Y-125058398D01*
X207753023Y-124867922D01*
X207791119Y-124791732D01*
X207829214Y-124753636D01*
X207905404Y-124715541D01*
X208057785Y-124715541D01*
X208133976Y-124753636D01*
X208172071Y-124791732D01*
X208210166Y-124867922D01*
X208933976Y-115050779D02*
X208933976Y-114250779D01*
X208743500Y-114250779D01*
X208629214Y-114288875D01*
X208553023Y-114365065D01*
X208514928Y-114441255D01*
X208476833Y-114593636D01*
X208476833Y-114707922D01*
X208514928Y-114860303D01*
X208553023Y-114936494D01*
X208629214Y-115012684D01*
X208743500Y-115050779D01*
X208933976Y-115050779D01*
X207981595Y-114250779D02*
X207905404Y-114250779D01*
X207829214Y-114288875D01*
X207791119Y-114326970D01*
X207753023Y-114403160D01*
X207714928Y-114555541D01*
X207714928Y-114746017D01*
X207753023Y-114898398D01*
X207791119Y-114974589D01*
X207829214Y-115012684D01*
X207905404Y-115050779D01*
X207981595Y-115050779D01*
X208057785Y-115012684D01*
X208095880Y-114974589D01*
X208133976Y-114898398D01*
X208172071Y-114746017D01*
X208172071Y-114555541D01*
X208133976Y-114403160D01*
X208095880Y-114326970D01*
X208057785Y-114288875D01*
X207981595Y-114250779D01*
X208953023Y-109208875D02*
X209029214Y-109170779D01*
X209143500Y-109170779D01*
X209257785Y-109208875D01*
X209333976Y-109285065D01*
X209372071Y-109361255D01*
X209410166Y-109513636D01*
X209410166Y-109627922D01*
X209372071Y-109780303D01*
X209333976Y-109856494D01*
X209257785Y-109932684D01*
X209143500Y-109970779D01*
X209067309Y-109970779D01*
X208953023Y-109932684D01*
X208914928Y-109894589D01*
X208914928Y-109627922D01*
X209067309Y-109627922D01*
X208572071Y-109970779D02*
X208572071Y-109170779D01*
X208114928Y-109970779D01*
X208114928Y-109170779D01*
X207733976Y-109970779D02*
X207733976Y-109170779D01*
X207543500Y-109170779D01*
X207429214Y-109208875D01*
X207353023Y-109285065D01*
X207314928Y-109361255D01*
X207276833Y-109513636D01*
X207276833Y-109627922D01*
X207314928Y-109780303D01*
X207353023Y-109856494D01*
X207429214Y-109932684D01*
X207543500Y-109970779D01*
X207733976Y-109970779D01*
X208933976Y-112510779D02*
X208933976Y-111710779D01*
X208743500Y-111710779D01*
X208629214Y-111748875D01*
X208553023Y-111825065D01*
X208514928Y-111901255D01*
X208476833Y-112053636D01*
X208476833Y-112167922D01*
X208514928Y-112320303D01*
X208553023Y-112396494D01*
X208629214Y-112472684D01*
X208743500Y-112510779D01*
X208933976Y-112510779D01*
X207714928Y-112510779D02*
X208172071Y-112510779D01*
X207943500Y-112510779D02*
X207943500Y-111710779D01*
X208019690Y-111825065D01*
X208095880Y-111901255D01*
X208172071Y-111939351D01*
X197745309Y-124791732D02*
X197631023Y-124829827D01*
X197592928Y-124867922D01*
X197554833Y-124944113D01*
X197554833Y-125058398D01*
X197592928Y-125134589D01*
X197631023Y-125172684D01*
X197707214Y-125210779D01*
X198011976Y-125210779D01*
X198011976Y-124410779D01*
X197745309Y-124410779D01*
X197669119Y-124448875D01*
X197631023Y-124486970D01*
X197592928Y-124563160D01*
X197592928Y-124639351D01*
X197631023Y-124715541D01*
X197669119Y-124753636D01*
X197745309Y-124791732D01*
X198011976Y-124791732D01*
X197288166Y-124410779D02*
X196792928Y-124410779D01*
X197059595Y-124715541D01*
X196945309Y-124715541D01*
X196869119Y-124753636D01*
X196831023Y-124791732D01*
X196792928Y-124867922D01*
X196792928Y-125058398D01*
X196831023Y-125134589D01*
X196869119Y-125172684D01*
X196945309Y-125210779D01*
X197173880Y-125210779D01*
X197250071Y-125172684D01*
X197288166Y-125134589D01*
X197745309Y-127331732D02*
X197631023Y-127369827D01*
X197592928Y-127407922D01*
X197554833Y-127484113D01*
X197554833Y-127598398D01*
X197592928Y-127674589D01*
X197631023Y-127712684D01*
X197707214Y-127750779D01*
X198011976Y-127750779D01*
X198011976Y-126950779D01*
X197745309Y-126950779D01*
X197669119Y-126988875D01*
X197631023Y-127026970D01*
X197592928Y-127103160D01*
X197592928Y-127179351D01*
X197631023Y-127255541D01*
X197669119Y-127293636D01*
X197745309Y-127331732D01*
X198011976Y-127331732D01*
X197250071Y-127026970D02*
X197211976Y-126988875D01*
X197135785Y-126950779D01*
X196945309Y-126950779D01*
X196869119Y-126988875D01*
X196831023Y-127026970D01*
X196792928Y-127103160D01*
X196792928Y-127179351D01*
X196831023Y-127293636D01*
X197288166Y-127750779D01*
X196792928Y-127750779D01*
X197682713Y-107362684D02*
X197568427Y-107400779D01*
X197377951Y-107400779D01*
X197301760Y-107362684D01*
X197263665Y-107324589D01*
X197225570Y-107248398D01*
X197225570Y-107172208D01*
X197263665Y-107096017D01*
X197301760Y-107057922D01*
X197377951Y-107019827D01*
X197530332Y-106981732D01*
X197606522Y-106943636D01*
X197644618Y-106905541D01*
X197682713Y-106829351D01*
X197682713Y-106753160D01*
X197644618Y-106676970D01*
X197606522Y-106638875D01*
X197530332Y-106600779D01*
X197339856Y-106600779D01*
X197225570Y-106638875D01*
X196996999Y-106600779D02*
X196539856Y-106600779D01*
X196768427Y-107400779D02*
X196768427Y-106600779D01*
D11*
X209232500Y-100718875D02*
X211772500Y-100718875D01*
X193992500Y-98178875D02*
X211772500Y-98178875D01*
X193992500Y-100718875D02*
X193992500Y-98178875D01*
X211772500Y-131198875D02*
X193992500Y-131198875D01*
X209232500Y-103258875D02*
X211772500Y-103258875D01*
X209232500Y-100718875D02*
X209232500Y-103258875D01*
X193992500Y-131198875D02*
X193992500Y-100718875D01*
X211772500Y-98178875D02*
X211772500Y-100718875D01*
X211772500Y-100718875D02*
X211772500Y-131198875D01*
G36*
X198250932Y-107098235D02*
G01*
X198150932Y-107098235D01*
X198150932Y-106998235D01*
X198250932Y-106998235D01*
X198250932Y-107098235D01*
G37*
D10*
X198250932Y-107098235D02*
X198150932Y-107098235D01*
X198150932Y-106998235D01*
X198250932Y-106998235D01*
X198250932Y-107098235D01*
G36*
X198050932Y-106898235D02*
G01*
X197950932Y-106898235D01*
X197950932Y-106598235D01*
X198050932Y-106598235D01*
X198050932Y-106898235D01*
G37*
X198050932Y-106898235D02*
X197950932Y-106898235D01*
X197950932Y-106598235D01*
X198050932Y-106598235D01*
X198050932Y-106898235D01*
G36*
X198450932Y-106698235D02*
G01*
X197950932Y-106698235D01*
X197950932Y-106598235D01*
X198450932Y-106598235D01*
X198450932Y-106698235D01*
G37*
X198450932Y-106698235D02*
X197950932Y-106698235D01*
X197950932Y-106598235D01*
X198450932Y-106598235D01*
X198450932Y-106698235D01*
G36*
X198050932Y-107398235D02*
G01*
X197950932Y-107398235D01*
X197950932Y-107198235D01*
X198050932Y-107198235D01*
X198050932Y-107398235D01*
G37*
X198050932Y-107398235D02*
X197950932Y-107398235D01*
X197950932Y-107198235D01*
X198050932Y-107198235D01*
X198050932Y-107398235D01*
G36*
X198450932Y-107398235D02*
G01*
X198350932Y-107398235D01*
X198350932Y-106598235D01*
X198450932Y-106598235D01*
X198450932Y-107398235D01*
G37*
X198450932Y-107398235D02*
X198350932Y-107398235D01*
X198350932Y-106598235D01*
X198450932Y-106598235D01*
X198450932Y-107398235D01*
D12*
X210502500Y-101988875D03*
D13*
X210502500Y-104528875D03*
X210502500Y-107068875D03*
X210502500Y-109608875D03*
X210502500Y-112148875D03*
X210502500Y-114688875D03*
X210502500Y-117228875D03*
X210502500Y-119768875D03*
X210502500Y-122308875D03*
X210502500Y-124848875D03*
X210502500Y-127388875D03*
X210273900Y-129928875D03*
X195262500Y-129928875D03*
X195262500Y-127388875D03*
X195262500Y-124848875D03*
X195262500Y-122308875D03*
X195262500Y-119768875D03*
X195262500Y-117228875D03*
X195262500Y-114688875D03*
X195262500Y-112148875D03*
X195262500Y-109608875D03*
X195262500Y-107068875D03*
X195262500Y-104528875D03*
X195262500Y-101988875D03*
X207962500Y-129928875D03*
X205422500Y-129928875D03*
X202882500Y-129928875D03*
X200342500Y-129928875D03*
X197802500Y-129928875D03*
M02*
