M48
; DRILL file {KiCad (6.0.5)} date Fri Jun 30 16:23:24 2023
; FORMAT={-:-/ absolute / metric / decimal}
; #@! TF.CreationDate,2023-06-30T16:23:24+09:00
; #@! TF.GenerationSoftware,Kicad,Pcbnew,(6.0.5)
; #@! TF.FileFunction,MixedPlating,1,2
FMAT,2
METRIC
; #@! TA.AperFunction,Plated,PTH,ComponentDrill
T1C0.800
; #@! TA.AperFunction,Plated,PTH,ComponentDrill
T2C1.000
; #@! TA.AperFunction,Plated,PTH,ComponentDrill
T3C1.470
; #@! TA.AperFunction,Plated,PTH,ComponentDrill
T4C1.500
; #@! TA.AperFunction,NonPlated,NPTH,ComponentDrill
T5C1.750
; #@! TA.AperFunction,NonPlated,NPTH,ComponentDrill
T6C3.048
; #@! TA.AperFunction,NonPlated,NPTH,ComponentDrill
T7C3.988
%
G90
G05
T1
X22.834Y-127.069
X22.834Y-131.832
X22.834Y-150.881
X22.834Y-169.931
X22.834Y-188.981
X30.454Y-127.069
X30.454Y-131.832
X30.454Y-150.881
X30.454Y-169.931
X30.454Y-188.981
X41.884Y-108.019
X41.884Y-127.069
X41.884Y-131.832
X41.884Y-150.881
X41.884Y-169.931
X41.884Y-188.981
X49.504Y-108.019
X49.504Y-127.069
X49.504Y-131.832
X49.504Y-150.881
X49.504Y-169.931
X49.504Y-188.981
X60.934Y-108.019
X60.934Y-127.069
X60.934Y-131.832
X60.934Y-150.881
X60.934Y-169.931
X60.934Y-188.981
X68.554Y-108.019
X68.554Y-127.069
X68.554Y-131.832
X68.554Y-150.881
X68.554Y-169.931
X68.554Y-188.981
X79.984Y-108.019
X79.984Y-127.069
X79.984Y-131.832
X79.984Y-150.881
X79.984Y-169.931
X79.984Y-188.981
X87.604Y-108.019
X87.604Y-127.069
X87.604Y-131.832
X87.604Y-150.881
X87.604Y-169.931
X87.604Y-188.981
X99.034Y-108.019
X99.034Y-127.069
X99.034Y-131.832
X99.034Y-150.881
X99.034Y-169.931
X99.034Y-188.981
X106.654Y-108.019
X106.654Y-127.069
X106.654Y-131.832
X106.654Y-150.881
X106.654Y-169.931
X106.654Y-188.981
X122.846Y-108.019
X122.846Y-112.781
X122.846Y-131.832
X129.99Y-150.881
X130.466Y-108.019
X130.466Y-112.781
X130.466Y-131.832
X134.753Y-169.931
X136.181Y-194.696
X136.181Y-202.316
X137.61Y-150.881
X141.897Y-108.019
X141.897Y-112.781
X141.897Y-131.832
X142.373Y-169.931
X149.516Y-108.019
X149.516Y-112.781
X149.516Y-131.832
X155.231Y-194.696
X155.231Y-202.316
X156.184Y-150.881
X159.994Y-175.647
X159.994Y-183.266
X160.946Y-108.019
X160.946Y-112.781
X160.946Y-131.832
X163.804Y-150.881
X165.709Y-169.931
X165.709Y-188.981
X168.566Y-108.019
X168.566Y-112.781
X168.566Y-131.832
X173.329Y-169.931
X173.329Y-188.981
X174.281Y-118.496
X174.281Y-126.116
X175.234Y-150.881
X179.996Y-108.019
X179.996Y-112.781
X179.996Y-131.832
X182.854Y-150.881
X184.759Y-169.931
X184.759Y-188.981
X187.617Y-108.019
X187.617Y-112.781
X187.617Y-131.832
X192.379Y-169.931
X192.379Y-188.981
X194.284Y-150.881
X195.262Y-101.989
X195.262Y-104.529
X195.262Y-107.069
X195.262Y-109.609
X195.262Y-112.149
X195.262Y-114.689
X195.262Y-117.229
X195.262Y-119.769
X195.262Y-122.309
X195.262Y-124.849
X195.262Y-127.389
X195.262Y-129.929
X197.802Y-129.929
X200.343Y-129.929
X201.904Y-150.881
X202.882Y-129.929
X203.809Y-169.931
X205.422Y-129.929
X207.962Y-129.929
X210.274Y-129.929
X210.502Y-101.989
X210.502Y-104.529
X210.502Y-107.069
X210.502Y-109.609
X210.502Y-112.149
X210.502Y-114.689
X210.502Y-117.229
X210.502Y-119.769
X210.502Y-122.309
X210.502Y-124.849
X210.502Y-127.389
X211.429Y-169.931
X213.334Y-150.881
X218.096Y-108.019
X218.096Y-112.781
X218.096Y-131.832
X220.954Y-150.881
X222.859Y-169.931
X225.716Y-108.019
X225.716Y-112.781
X225.716Y-131.832
X230.479Y-169.931
X231.431Y-118.496
X231.431Y-126.116
X232.384Y-150.881
X236.194Y-175.647
X236.194Y-183.266
X237.147Y-108.019
X237.147Y-112.781
X237.147Y-131.832
X240.004Y-150.881
X241.909Y-169.931
X244.766Y-108.019
X244.766Y-112.781
X244.766Y-131.832
X249.529Y-169.931
X251.434Y-150.881
X256.197Y-108.019
X256.197Y-112.781
X256.197Y-131.832
X259.054Y-150.881
X260.959Y-169.931
X263.816Y-108.019
X263.816Y-112.781
X263.816Y-131.832
X268.579Y-169.931
X270.484Y-150.881
X275.246Y-108.019
X275.246Y-112.781
X275.246Y-131.832
X278.104Y-150.881
X280.009Y-169.931
X282.866Y-108.019
X282.866Y-112.781
X282.866Y-131.832
X287.629Y-169.931
X289.534Y-150.881
X294.296Y-108.019
X294.296Y-112.781
X294.296Y-131.832
X297.154Y-150.881
X299.059Y-169.931
X301.916Y-108.019
X301.916Y-112.781
X301.916Y-131.832
X306.679Y-169.931
X308.584Y-150.881
X313.346Y-108.019
X313.346Y-112.781
X313.346Y-131.832
X313.346Y-188.981
X316.204Y-150.881
X318.109Y-169.931
X320.966Y-108.019
X320.966Y-112.781
X320.966Y-131.832
X320.966Y-188.981
X325.729Y-169.931
X327.634Y-150.881
X331.444Y-175.647
X331.444Y-183.266
X332.397Y-108.019
X332.397Y-112.781
X332.397Y-131.832
X332.397Y-188.981
X335.254Y-150.881
X337.159Y-169.931
X340.017Y-108.019
X340.017Y-112.781
X340.017Y-131.832
X340.017Y-188.981
X344.779Y-169.931
X346.684Y-150.881
X350.494Y-175.647
X350.494Y-183.266
X351.446Y-108.019
X351.446Y-112.781
X351.446Y-131.832
X351.446Y-188.981
X354.304Y-150.881
X359.066Y-108.019
X359.066Y-112.781
X359.066Y-131.832
X359.066Y-188.981
X360.019Y-156.596
X360.019Y-164.216
X364.781Y-94.684
X364.781Y-102.304
X364.781Y-194.696
X364.781Y-202.316
X370.496Y-108.019
X374.306Y-137.546
X374.306Y-145.166
X378.116Y-108.019
X383.832Y-94.684
X383.832Y-102.304
X383.832Y-194.696
X383.832Y-202.316
X389.546Y-108.019
X395.738Y-175.647
X395.738Y-183.266
X397.166Y-108.019
T2
X19.644Y-95.994
X19.644Y-100.994
X34.144Y-95.994
X34.144Y-98.494
X34.144Y-100.994
T3
X22.834Y-115.004
X22.834Y-138.816
X22.834Y-157.867
X22.834Y-176.916
X22.834Y-195.966
X29.184Y-112.464
X29.184Y-136.276
X29.184Y-155.326
X29.184Y-174.376
X29.184Y-193.427
X41.884Y-95.954
X41.884Y-115.004
X41.884Y-138.816
X41.884Y-157.867
X41.884Y-176.916
X41.884Y-195.966
X48.234Y-93.414
X48.234Y-112.464
X48.234Y-136.276
X48.234Y-155.326
X48.234Y-174.376
X48.234Y-193.427
X60.934Y-95.954
X60.934Y-115.004
X60.934Y-138.816
X60.934Y-157.867
X60.934Y-176.916
X60.934Y-195.966
X67.284Y-93.414
X67.284Y-112.464
X67.284Y-136.276
X67.284Y-155.326
X67.284Y-174.376
X67.284Y-193.427
X79.984Y-95.954
X79.984Y-115.004
X79.984Y-138.816
X79.984Y-157.867
X79.984Y-176.916
X79.984Y-195.966
X86.334Y-93.414
X86.334Y-112.464
X86.334Y-136.276
X86.334Y-155.326
X86.334Y-174.376
X86.334Y-193.427
X99.034Y-95.954
X99.034Y-115.004
X99.034Y-138.816
X99.034Y-157.867
X99.034Y-176.916
X99.034Y-195.966
X105.384Y-93.414
X105.384Y-112.464
X105.384Y-136.276
X105.384Y-155.326
X105.384Y-174.376
X105.384Y-193.427
X122.846Y-95.954
X122.846Y-119.766
X122.846Y-195.966
X125.228Y-176.916
X127.609Y-138.816
X129.196Y-93.414
X129.196Y-117.227
X129.196Y-193.427
X129.99Y-157.867
X131.578Y-174.376
X133.959Y-136.276
X134.753Y-176.916
X136.34Y-155.326
X141.103Y-174.376
X141.897Y-95.954
X141.897Y-119.766
X141.897Y-195.966
X146.659Y-176.916
X148.246Y-93.414
X148.246Y-117.227
X148.246Y-193.427
X151.421Y-138.816
X153.009Y-174.376
X156.184Y-157.867
X157.772Y-136.276
X160.946Y-95.954
X160.946Y-119.766
X160.946Y-195.966
X162.534Y-155.326
X165.709Y-176.916
X167.296Y-93.414
X167.296Y-117.227
X167.296Y-193.427
X170.471Y-138.816
X172.059Y-174.376
X175.234Y-157.867
X176.821Y-136.276
X179.996Y-95.954
X179.996Y-119.766
X179.996Y-195.966
X181.584Y-155.326
X184.759Y-176.916
X186.346Y-93.414
X186.346Y-117.227
X186.346Y-193.427
X189.522Y-138.816
X191.109Y-174.376
X194.284Y-157.867
X195.871Y-136.276
X199.046Y-95.954
X199.046Y-119.766
X200.634Y-155.326
X203.809Y-176.916
X205.397Y-93.414
X205.397Y-117.227
X208.571Y-138.816
X210.159Y-174.376
X213.334Y-157.867
X214.921Y-136.276
X218.096Y-95.954
X218.096Y-119.766
X219.684Y-155.326
X222.859Y-176.916
X224.446Y-93.414
X224.446Y-117.227
X227.621Y-138.816
X229.209Y-174.376
X232.384Y-157.867
X233.971Y-136.276
X237.147Y-95.954
X237.147Y-119.766
X238.734Y-155.326
X241.909Y-176.916
X243.496Y-93.414
X243.496Y-117.227
X246.671Y-138.816
X246.671Y-195.966
X248.259Y-174.376
X251.434Y-157.867
X253.021Y-136.276
X253.021Y-193.427
X256.197Y-95.954
X256.197Y-119.766
X257.784Y-155.326
X260.959Y-176.916
X262.546Y-93.414
X262.546Y-117.227
X265.721Y-138.816
X267.309Y-174.376
X270.484Y-157.867
X272.072Y-136.276
X275.246Y-95.954
X275.246Y-119.766
X276.834Y-155.326
X280.009Y-176.916
X281.596Y-93.414
X281.596Y-117.227
X284.772Y-138.816
X286.359Y-174.376
X289.534Y-157.867
X291.121Y-136.276
X294.296Y-95.954
X294.296Y-119.766
X295.884Y-155.326
X299.059Y-176.916
X300.647Y-93.414
X300.647Y-117.227
X303.822Y-138.816
X305.409Y-174.376
X308.584Y-157.867
X310.171Y-136.276
X313.346Y-95.954
X313.346Y-119.766
X313.346Y-195.966
X314.934Y-155.326
X318.109Y-176.916
X319.696Y-93.414
X319.696Y-117.227
X319.696Y-193.427
X322.871Y-138.816
X324.459Y-174.376
X327.634Y-157.867
X329.221Y-136.276
X332.397Y-95.954
X332.397Y-119.766
X332.397Y-195.966
X333.984Y-155.326
X337.159Y-176.916
X338.746Y-93.414
X338.746Y-117.227
X338.746Y-193.427
X341.921Y-138.816
X343.509Y-174.376
X346.684Y-157.867
X348.272Y-136.276
X351.446Y-95.954
X351.446Y-119.766
X351.446Y-195.966
X353.034Y-155.326
X356.209Y-176.916
X357.796Y-93.414
X357.796Y-117.227
X357.796Y-193.427
X360.971Y-138.816
X362.559Y-174.376
X365.734Y-157.867
X367.321Y-136.276
X370.496Y-95.954
X370.496Y-119.766
X370.496Y-195.966
X372.084Y-155.326
X372.878Y-176.916
X376.846Y-93.414
X376.846Y-117.227
X376.846Y-193.427
X377.64Y-157.867
X379.228Y-174.376
X380.022Y-119.766
X383.673Y-184.536
X383.99Y-155.326
X385.895Y-148.341
X386.371Y-117.227
X388.435Y-154.691
X389.546Y-95.954
X389.546Y-195.966
X390.023Y-181.996
X390.816Y-127.386
X391.134Y-137.546
X393.674Y-143.897
X395.897Y-93.414
X395.897Y-193.427
X397.166Y-124.846
T5
X21.564Y-117.544
X21.564Y-141.356
X21.564Y-160.406
X21.564Y-179.457
X21.564Y-198.506
X31.724Y-117.544
X31.724Y-141.356
X31.724Y-160.406
X31.724Y-179.457
X31.724Y-198.506
X40.614Y-98.494
X40.614Y-117.544
X40.614Y-141.356
X40.614Y-160.406
X40.614Y-179.457
X40.614Y-198.506
X50.774Y-98.494
X50.774Y-117.544
X50.774Y-141.356
X50.774Y-160.406
X50.774Y-179.457
X50.774Y-198.506
X59.664Y-98.494
X59.664Y-117.544
X59.664Y-141.356
X59.664Y-160.406
X59.664Y-179.457
X59.664Y-198.506
X69.824Y-98.494
X69.824Y-117.544
X69.824Y-141.356
X69.824Y-160.406
X69.824Y-179.457
X69.824Y-198.506
X78.714Y-98.494
X78.714Y-117.544
X78.714Y-141.356
X78.714Y-160.406
X78.714Y-179.457
X78.714Y-198.506
X88.874Y-98.494
X88.874Y-117.544
X88.874Y-141.356
X88.874Y-160.406
X88.874Y-179.457
X88.874Y-198.506
X97.764Y-98.494
X97.764Y-117.544
X97.764Y-141.356
X97.764Y-160.406
X97.764Y-179.457
X97.764Y-198.506
X107.924Y-98.494
X107.924Y-117.544
X107.924Y-141.356
X107.924Y-160.406
X107.924Y-179.457
X107.924Y-198.506
X121.576Y-98.494
X121.576Y-122.306
X121.576Y-198.506
X123.958Y-179.457
X126.339Y-141.356
X128.72Y-160.406
X131.737Y-98.494
X131.737Y-122.306
X131.737Y-198.506
X133.483Y-179.457
X134.118Y-179.457
X136.499Y-141.356
X138.88Y-160.406
X140.626Y-98.494
X140.626Y-122.306
X140.626Y-198.506
X143.643Y-179.457
X145.389Y-179.457
X150.151Y-141.356
X150.786Y-98.494
X150.786Y-122.306
X150.786Y-198.506
X154.914Y-160.406
X155.549Y-179.457
X159.677Y-98.494
X159.677Y-122.306
X159.677Y-198.506
X160.311Y-141.356
X164.439Y-179.457
X165.074Y-160.406
X169.201Y-141.356
X169.837Y-98.494
X169.837Y-122.306
X169.837Y-198.506
X173.964Y-160.406
X174.599Y-179.457
X178.726Y-98.494
X178.726Y-122.306
X178.726Y-198.506
X179.361Y-141.356
X183.489Y-179.457
X184.124Y-160.406
X188.251Y-141.356
X188.886Y-98.494
X188.886Y-122.306
X188.886Y-198.506
X193.014Y-160.406
X193.649Y-179.457
X197.776Y-98.494
X197.776Y-122.306
X198.411Y-141.356
X202.539Y-179.457
X203.174Y-160.406
X207.302Y-141.356
X207.936Y-98.494
X207.936Y-122.306
X212.064Y-160.406
X212.699Y-179.457
X216.826Y-98.494
X216.826Y-122.306
X217.462Y-141.356
X221.589Y-179.457
X222.224Y-160.406
X226.351Y-141.356
X226.986Y-98.494
X226.986Y-122.306
X231.114Y-160.406
X231.749Y-179.457
X235.876Y-98.494
X235.876Y-122.306
X236.511Y-141.356
X240.639Y-179.457
X241.274Y-160.406
X245.401Y-141.356
X245.401Y-198.506
X246.036Y-98.494
X246.036Y-122.306
X250.164Y-160.406
X250.799Y-179.457
X254.926Y-98.494
X254.926Y-122.306
X255.561Y-141.356
X255.561Y-198.506
X259.689Y-179.457
X260.324Y-160.406
X264.452Y-141.356
X265.087Y-98.494
X265.087Y-122.306
X269.214Y-160.406
X269.849Y-179.457
X273.976Y-98.494
X273.976Y-122.306
X274.611Y-141.356
X278.739Y-179.457
X279.374Y-160.406
X283.501Y-141.356
X284.137Y-98.494
X284.137Y-122.306
X288.264Y-160.406
X288.899Y-179.457
X293.026Y-98.494
X293.026Y-122.306
X293.661Y-141.356
X297.789Y-179.457
X298.424Y-160.406
X302.551Y-141.356
X303.186Y-98.494
X303.186Y-122.306
X307.314Y-160.406
X307.949Y-179.457
X312.077Y-98.494
X312.077Y-122.306
X312.077Y-198.506
X312.712Y-141.356
X316.839Y-179.457
X317.474Y-160.406
X321.601Y-141.356
X322.236Y-98.494
X322.236Y-122.306
X322.236Y-198.506
X326.364Y-160.406
X326.999Y-179.457
X331.126Y-98.494
X331.126Y-122.306
X331.126Y-198.506
X331.762Y-141.356
X335.889Y-179.457
X336.524Y-160.406
X340.651Y-141.356
X341.286Y-98.494
X341.286Y-122.306
X341.286Y-198.506
X345.414Y-160.406
X346.049Y-179.457
X350.176Y-98.494
X350.176Y-122.306
X350.176Y-198.506
X350.811Y-141.356
X354.939Y-179.457
X355.574Y-160.406
X359.702Y-141.356
X360.337Y-98.494
X360.337Y-122.306
X360.337Y-198.506
X364.464Y-160.406
X365.099Y-179.457
X369.226Y-98.494
X369.226Y-122.306
X369.226Y-198.506
X369.861Y-141.356
X371.608Y-179.457
X374.624Y-160.406
X376.37Y-160.406
X378.751Y-122.306
X379.386Y-98.494
X379.386Y-122.306
X379.386Y-198.506
X381.133Y-179.457
X381.768Y-179.457
X386.53Y-160.406
X388.276Y-98.494
X388.276Y-122.306
X388.276Y-198.506
X388.594Y-136.276
X388.594Y-146.436
X388.911Y-122.306
X390.975Y-145.802
X390.975Y-155.962
X391.293Y-179.457
X398.436Y-98.494
X398.436Y-122.306
X398.436Y-198.506
T6
X126.656Y-172.471
X150.469Y-172.471
X202.856Y-205.492
X298.106Y-205.492
X364.781Y-172.471
X369.544Y-167.391
X371.925Y-115.322
X388.594Y-172.471
X393.356Y-167.391
X395.738Y-115.322
X397.96Y-138.944
X397.96Y-162.82
T7
X26.644Y-117.544
X26.644Y-141.356
X26.644Y-160.406
X26.644Y-179.457
X26.644Y-198.506
X45.694Y-98.494
X45.694Y-117.544
X45.694Y-141.356
X45.694Y-160.406
X45.694Y-179.457
X45.694Y-198.506
X64.744Y-98.494
X64.744Y-117.544
X64.744Y-141.356
X64.744Y-160.406
X64.744Y-179.457
X64.744Y-198.506
X83.794Y-98.494
X83.794Y-117.544
X83.794Y-141.356
X83.794Y-160.406
X83.794Y-179.457
X83.794Y-198.506
X102.844Y-98.494
X102.844Y-117.544
X102.844Y-141.356
X102.844Y-160.406
X102.844Y-179.457
X102.844Y-198.506
X126.656Y-98.494
X126.656Y-122.306
X126.656Y-187.712
X126.656Y-198.506
X129.038Y-179.457
X131.419Y-141.356
X133.8Y-160.406
X138.563Y-179.457
X145.707Y-98.494
X145.707Y-122.306
X145.707Y-198.506
X150.469Y-179.457
X150.469Y-187.712
X155.231Y-141.356
X159.994Y-160.406
X164.756Y-98.494
X164.756Y-122.306
X164.756Y-198.506
X169.519Y-179.457
X174.281Y-141.356
X179.044Y-160.406
X183.806Y-98.494
X183.806Y-122.306
X183.806Y-198.506
X188.569Y-179.457
X193.332Y-141.356
X198.094Y-160.406
X202.856Y-98.494
X202.856Y-122.306
X202.856Y-190.251
X207.619Y-179.457
X212.381Y-141.356
X217.144Y-160.406
X221.906Y-98.494
X221.906Y-122.306
X226.669Y-179.457
X231.431Y-141.356
X236.194Y-160.406
X240.956Y-98.494
X240.956Y-122.306
X245.719Y-179.457
X250.481Y-141.356
X250.481Y-198.506
X255.244Y-160.406
X260.006Y-98.494
X260.006Y-122.306
X264.769Y-179.457
X269.531Y-141.356
X274.294Y-160.406
X279.056Y-98.494
X279.056Y-122.306
X283.819Y-179.457
X288.582Y-141.356
X293.344Y-160.406
X298.106Y-98.494
X298.106Y-122.306
X298.106Y-190.251
X302.869Y-179.457
X307.631Y-141.356
X312.394Y-160.406
X317.156Y-98.494
X317.156Y-122.306
X317.156Y-198.506
X321.919Y-179.457
X326.681Y-141.356
X331.444Y-160.406
X336.207Y-98.494
X336.207Y-122.306
X336.207Y-198.506
X340.969Y-179.457
X345.731Y-141.356
X350.494Y-160.406
X355.256Y-98.494
X355.256Y-122.306
X355.256Y-198.506
X360.019Y-179.457
X364.781Y-141.356
X364.781Y-187.712
X369.544Y-152.151
X369.544Y-160.406
X371.925Y-130.561
X374.306Y-98.494
X374.306Y-122.306
X374.306Y-198.506
X376.688Y-179.457
X381.45Y-160.406
X382.72Y-138.944
X382.72Y-162.82
X383.832Y-122.306
X386.213Y-179.457
X388.594Y-141.356
X388.594Y-187.712
X390.975Y-150.881
X393.356Y-98.494
X393.356Y-122.306
X393.356Y-152.151
X393.356Y-198.506
X395.738Y-130.561
T4
G00X27.294Y-92.894
M15
G01X25.994Y-92.894
M16
G05
G00X27.294Y-104.094
M15
G01X25.994Y-104.094
M16
G05
T0
M30
