G04 #@! TF.GenerationSoftware,KiCad,Pcbnew,(6.0.5)*
G04 #@! TF.CreationDate,2023-06-30T16:23:22+09:00*
G04 #@! TF.ProjectId,Varanidae,56617261-6e69-4646-9165-2e6b69636164,rev?*
G04 #@! TF.SameCoordinates,Original*
G04 #@! TF.FileFunction,Copper,L2,Bot*
G04 #@! TF.FilePolarity,Positive*
%FSLAX46Y46*%
G04 Gerber Fmt 4.6, Leading zero omitted, Abs format (unit mm)*
G04 Created by KiCad (PCBNEW (6.0.5)) date 2023-06-30 16:23:22*
%MOMM*%
%LPD*%
G01*
G04 APERTURE LIST*
G04 #@! TA.AperFunction,ComponentPad*
%ADD10R,1.600000X1.600000*%
G04 #@! TD*
G04 #@! TA.AperFunction,ComponentPad*
%ADD11O,1.600000X1.600000*%
G04 #@! TD*
G04 #@! TA.AperFunction,ComponentPad*
%ADD12R,2.000000X2.000000*%
G04 #@! TD*
G04 #@! TA.AperFunction,ComponentPad*
%ADD13C,2.000000*%
G04 #@! TD*
G04 #@! TA.AperFunction,ComponentPad*
%ADD14R,3.200000X2.000000*%
G04 #@! TD*
G04 #@! TA.AperFunction,ComponentPad*
%ADD15C,2.250000*%
G04 #@! TD*
G04 #@! TA.AperFunction,ComponentPad*
%ADD16R,1.525000X1.525000*%
G04 #@! TD*
G04 #@! TA.AperFunction,ComponentPad*
%ADD17C,1.525000*%
G04 #@! TD*
G04 #@! TA.AperFunction,Conductor*
%ADD18C,0.250000*%
G04 #@! TD*
G04 APERTURE END LIST*
D10*
X130466500Y-131831500D03*
D11*
X122846500Y-131831500D03*
D10*
X301916500Y-108019000D03*
D11*
X294296500Y-108019000D03*
D10*
X211429000Y-169931500D03*
D11*
X203809000Y-169931500D03*
D10*
X106654000Y-150881500D03*
D11*
X99034000Y-150881500D03*
D10*
X106654000Y-127069000D03*
D11*
X99034000Y-127069000D03*
D10*
X374306500Y-137546500D03*
D11*
X374306500Y-145166500D03*
D10*
X320966500Y-112781500D03*
D11*
X313346500Y-112781500D03*
D10*
X187616500Y-108019000D03*
D11*
X179996500Y-108019000D03*
D10*
X383831500Y-194696500D03*
D11*
X383831500Y-202316500D03*
D10*
X192379000Y-188981500D03*
D11*
X184759000Y-188981500D03*
D10*
X68554000Y-127069000D03*
D11*
X60934000Y-127069000D03*
D10*
X68554000Y-108019000D03*
D11*
X60934000Y-108019000D03*
D10*
X149516500Y-131831500D03*
D11*
X141896500Y-131831500D03*
D10*
X163804000Y-150881500D03*
D11*
X156184000Y-150881500D03*
D10*
X378116500Y-108019000D03*
D11*
X370496500Y-108019000D03*
D10*
X130466500Y-112781500D03*
D11*
X122846500Y-112781500D03*
D10*
X359066500Y-188981500D03*
D11*
X351446500Y-188981500D03*
D10*
X360019000Y-156596500D03*
D11*
X360019000Y-164216500D03*
D10*
X49504000Y-108019000D03*
D11*
X41884000Y-108019000D03*
D10*
X187616500Y-131831500D03*
D11*
X179996500Y-131831500D03*
D10*
X225716500Y-131831500D03*
D11*
X218096500Y-131831500D03*
D10*
X268579000Y-169931500D03*
D11*
X260959000Y-169931500D03*
D10*
X287629000Y-169931500D03*
D11*
X280009000Y-169931500D03*
D10*
X87604000Y-188981500D03*
D11*
X79984000Y-188981500D03*
D10*
X297154000Y-150881500D03*
D11*
X289534000Y-150881500D03*
D10*
X49504000Y-169931500D03*
D11*
X41884000Y-169931500D03*
D10*
X173329000Y-188981500D03*
D11*
X165709000Y-188981500D03*
D10*
X159994000Y-175646500D03*
D11*
X159994000Y-183266500D03*
D10*
X68554000Y-169931500D03*
D11*
X60934000Y-169931500D03*
D10*
X344779000Y-169931500D03*
D11*
X337159000Y-169931500D03*
D12*
X34144000Y-100994000D03*
D13*
X34144000Y-95994000D03*
X34144000Y-98494000D03*
D14*
X26644000Y-104094000D03*
X26644000Y-92894000D03*
D13*
X19644000Y-95994000D03*
X19644000Y-100994000D03*
D10*
X301916500Y-112781500D03*
D11*
X294296500Y-112781500D03*
D10*
X320966500Y-108019000D03*
D11*
X313346500Y-108019000D03*
D10*
X316204000Y-150881500D03*
D11*
X308584000Y-150881500D03*
D10*
X259054000Y-150881500D03*
D11*
X251434000Y-150881500D03*
D10*
X340016500Y-188981500D03*
D11*
X332396500Y-188981500D03*
D10*
X282866500Y-112781500D03*
D11*
X275246500Y-112781500D03*
D10*
X168566500Y-108019000D03*
D11*
X160946500Y-108019000D03*
D10*
X87604000Y-108019000D03*
D11*
X79984000Y-108019000D03*
D10*
X359066500Y-131831500D03*
D11*
X351446500Y-131831500D03*
D10*
X249529000Y-169931500D03*
D11*
X241909000Y-169931500D03*
D10*
X106654000Y-169931500D03*
D11*
X99034000Y-169931500D03*
D10*
X130466500Y-108019000D03*
D11*
X122846500Y-108019000D03*
D10*
X331444000Y-175646500D03*
D11*
X331444000Y-183266500D03*
D10*
X364781500Y-194696500D03*
D11*
X364781500Y-202316500D03*
D10*
X320966500Y-131831500D03*
D11*
X313346500Y-131831500D03*
D10*
X359066500Y-112781500D03*
D11*
X351446500Y-112781500D03*
D10*
X225716500Y-112781500D03*
D11*
X218096500Y-112781500D03*
D10*
X137610250Y-150881500D03*
D11*
X129990250Y-150881500D03*
D10*
X106654000Y-131831500D03*
D11*
X99034000Y-131831500D03*
D10*
X350494000Y-175646500D03*
D11*
X350494000Y-183266500D03*
D10*
X192379000Y-169931500D03*
D11*
X184759000Y-169931500D03*
D10*
X354304000Y-150881500D03*
D11*
X346684000Y-150881500D03*
D10*
X68554000Y-131831500D03*
D11*
X60934000Y-131831500D03*
D10*
X173329000Y-169931500D03*
D11*
X165709000Y-169931500D03*
D10*
X30454000Y-150881500D03*
D11*
X22834000Y-150881500D03*
D10*
X49504000Y-150881500D03*
D11*
X41884000Y-150881500D03*
D10*
X220954000Y-150881500D03*
D11*
X213334000Y-150881500D03*
D10*
X87604000Y-131831500D03*
D11*
X79984000Y-131831500D03*
D10*
X187616500Y-112781500D03*
D11*
X179996500Y-112781500D03*
D10*
X263816500Y-131831500D03*
D11*
X256196500Y-131831500D03*
D10*
X395737750Y-175646500D03*
D11*
X395737750Y-183266500D03*
D10*
X68554000Y-150881500D03*
D11*
X60934000Y-150881500D03*
D10*
X68554000Y-188981500D03*
D11*
X60934000Y-188981500D03*
D10*
X149516500Y-112781500D03*
D11*
X141896500Y-112781500D03*
D10*
X155231500Y-194696500D03*
D11*
X155231500Y-202316500D03*
D10*
X263816500Y-108019000D03*
D11*
X256196500Y-108019000D03*
D10*
X340016500Y-131831500D03*
D11*
X332396500Y-131831500D03*
D10*
X335254000Y-150881500D03*
D11*
X327634000Y-150881500D03*
D10*
X320966500Y-188981500D03*
D11*
X313346500Y-188981500D03*
D10*
X49504000Y-131831500D03*
D11*
X41884000Y-131831500D03*
D10*
X244766500Y-108019000D03*
D11*
X237146500Y-108019000D03*
D10*
X282866500Y-108019000D03*
D11*
X275246500Y-108019000D03*
D10*
X174281500Y-118496500D03*
D11*
X174281500Y-126116500D03*
D10*
X30454000Y-131831500D03*
D11*
X22834000Y-131831500D03*
D10*
X149516500Y-108019000D03*
D11*
X141896500Y-108019000D03*
D10*
X278104000Y-150881500D03*
D11*
X270484000Y-150881500D03*
D10*
X136181500Y-194696500D03*
D11*
X136181500Y-202316500D03*
D10*
X282866500Y-131831500D03*
D11*
X275246500Y-131831500D03*
D10*
X364781500Y-102304000D03*
D11*
X364781500Y-94684000D03*
D10*
X87604000Y-127069000D03*
D11*
X79984000Y-127069000D03*
D10*
X30454000Y-169931500D03*
D11*
X22834000Y-169931500D03*
D10*
X49504000Y-127069000D03*
D11*
X41884000Y-127069000D03*
D10*
X230479000Y-169931500D03*
D11*
X222859000Y-169931500D03*
D10*
X106654000Y-188981500D03*
D11*
X99034000Y-188981500D03*
D10*
X397166500Y-108019000D03*
D11*
X389546500Y-108019000D03*
D10*
X201904000Y-150881500D03*
D11*
X194284000Y-150881500D03*
D10*
X263816500Y-112781500D03*
D11*
X256196500Y-112781500D03*
D10*
X168566500Y-112781500D03*
D11*
X160946500Y-112781500D03*
D10*
X383831500Y-102304000D03*
D11*
X383831500Y-94684000D03*
D10*
X240004000Y-150881500D03*
D11*
X232384000Y-150881500D03*
D10*
X168566500Y-131831500D03*
D11*
X160946500Y-131831500D03*
D10*
X244766500Y-112781500D03*
D11*
X237146500Y-112781500D03*
D10*
X359066500Y-108019000D03*
D11*
X351446500Y-108019000D03*
D10*
X231431500Y-126116500D03*
D11*
X231431500Y-118496500D03*
D10*
X30454000Y-188981500D03*
D11*
X22834000Y-188981500D03*
D10*
X340016500Y-108019000D03*
D11*
X332396500Y-108019000D03*
D10*
X340016500Y-112781500D03*
D11*
X332396500Y-112781500D03*
D10*
X142372750Y-169931500D03*
D11*
X134752750Y-169931500D03*
D10*
X225716500Y-108019000D03*
D11*
X218096500Y-108019000D03*
D10*
X87604000Y-150881500D03*
D11*
X79984000Y-150881500D03*
D10*
X49504000Y-188981500D03*
D11*
X41884000Y-188981500D03*
D10*
X325729000Y-169931500D03*
D11*
X318109000Y-169931500D03*
D10*
X306679000Y-169931500D03*
D11*
X299059000Y-169931500D03*
D10*
X182854000Y-150881500D03*
D11*
X175234000Y-150881500D03*
D10*
X106654000Y-108019000D03*
D11*
X99034000Y-108019000D03*
D10*
X30454000Y-127069000D03*
D11*
X22834000Y-127069000D03*
D10*
X301916500Y-131831500D03*
D11*
X294296500Y-131831500D03*
D10*
X236194000Y-175646500D03*
D11*
X236194000Y-183266500D03*
D10*
X87604000Y-169931500D03*
D11*
X79984000Y-169931500D03*
D10*
X244766500Y-131831500D03*
D11*
X237146500Y-131831500D03*
D15*
X48234000Y-155326500D03*
X41884000Y-157866500D03*
X67284000Y-136276500D03*
X60934000Y-138816500D03*
X319696500Y-117226500D03*
X313346500Y-119766500D03*
X233971500Y-136276500D03*
X227621500Y-138816500D03*
X67284000Y-155326500D03*
X60934000Y-157866500D03*
X229209000Y-174376500D03*
X222859000Y-176916500D03*
X362559000Y-174376500D03*
X356209000Y-176916500D03*
X86334000Y-93414000D03*
X79984000Y-95954000D03*
X86334000Y-193426500D03*
X79984000Y-195966500D03*
X348271500Y-136276500D03*
X341921500Y-138816500D03*
X383672750Y-184536500D03*
X390022750Y-181996500D03*
X367321500Y-136276500D03*
X360971500Y-138816500D03*
X200634000Y-155326500D03*
X194284000Y-157866500D03*
X319696500Y-193426500D03*
X313346500Y-195966500D03*
X224446500Y-117226500D03*
X218096500Y-119766500D03*
X300646500Y-93414000D03*
X294296500Y-95954000D03*
X186346500Y-193426500D03*
X179996500Y-195966500D03*
X376846500Y-117226500D03*
X370496500Y-119766500D03*
X214921500Y-136276500D03*
X208571500Y-138816500D03*
X276834000Y-155326500D03*
X270484000Y-157866500D03*
X372084000Y-155326500D03*
X365734000Y-157866500D03*
X338746500Y-193426500D03*
X332396500Y-195966500D03*
X390816500Y-127386500D03*
X397166500Y-124846500D03*
X395896500Y-93414000D03*
X389546500Y-95954000D03*
X105384000Y-93414000D03*
X99034000Y-95954000D03*
X262546500Y-117226500D03*
X256196500Y-119766500D03*
X29184000Y-155326500D03*
X22834000Y-157866500D03*
X186346500Y-93414000D03*
X179996500Y-95954000D03*
X219684000Y-155326500D03*
X213334000Y-157866500D03*
X148246500Y-93414000D03*
X141896500Y-95954000D03*
X67284000Y-193426500D03*
X60934000Y-195966500D03*
X286359000Y-174376500D03*
X280009000Y-176916500D03*
X105384000Y-112464000D03*
X99034000Y-115004000D03*
X195871500Y-136276500D03*
X189521500Y-138816500D03*
X376846500Y-93414000D03*
X370496500Y-95954000D03*
X67284000Y-174376500D03*
X60934000Y-176916500D03*
D16*
X210502500Y-101988875D03*
D17*
X210502500Y-104528875D03*
X210502500Y-107068875D03*
X210502500Y-109608875D03*
X210502500Y-112148875D03*
X210502500Y-114688875D03*
X210502500Y-117228875D03*
X210502500Y-119768875D03*
X210502500Y-122308875D03*
X210502500Y-124848875D03*
X210502500Y-127388875D03*
X210273900Y-129928875D03*
X195262500Y-129928875D03*
X195262500Y-127388875D03*
X195262500Y-124848875D03*
X195262500Y-122308875D03*
X195262500Y-119768875D03*
X195262500Y-117228875D03*
X195262500Y-114688875D03*
X195262500Y-112148875D03*
X195262500Y-109608875D03*
X195262500Y-107068875D03*
X195262500Y-104528875D03*
X195262500Y-101988875D03*
X207962500Y-129928875D03*
X205422500Y-129928875D03*
X202882500Y-129928875D03*
X200342500Y-129928875D03*
X197802500Y-129928875D03*
D15*
X253021500Y-193426500D03*
X246671500Y-195966500D03*
X395896500Y-193426500D03*
X389546500Y-195966500D03*
X281596500Y-93414000D03*
X275246500Y-95954000D03*
X257784000Y-155326500D03*
X251434000Y-157866500D03*
X300646500Y-117226500D03*
X294296500Y-119766500D03*
X167296500Y-193426500D03*
X160946500Y-195966500D03*
X333984000Y-155326500D03*
X327634000Y-157866500D03*
X253021500Y-136276500D03*
X246671500Y-138816500D03*
X157771500Y-136276500D03*
X151421500Y-138816500D03*
X338746500Y-93414000D03*
X332396500Y-95954000D03*
X379227750Y-174376500D03*
X372877750Y-176916500D03*
X105384000Y-174376500D03*
X99034000Y-176916500D03*
X48234000Y-174376500D03*
X41884000Y-176916500D03*
X136340250Y-155326500D03*
X129990250Y-157866500D03*
X129196500Y-117226500D03*
X122846500Y-119766500D03*
X105384000Y-193426500D03*
X99034000Y-195966500D03*
X186346500Y-117226500D03*
X179996500Y-119766500D03*
X29184000Y-136276500D03*
X22834000Y-138816500D03*
X48234000Y-193426500D03*
X41884000Y-195966500D03*
X243496500Y-93414000D03*
X237146500Y-95954000D03*
X131577750Y-174376500D03*
X125227750Y-176916500D03*
X148246500Y-193426500D03*
X141896500Y-195966500D03*
X343509000Y-174376500D03*
X337159000Y-176916500D03*
X29184000Y-112464000D03*
X22834000Y-115004000D03*
X353034000Y-155326500D03*
X346684000Y-157866500D03*
X281596500Y-117226500D03*
X275246500Y-119766500D03*
X148246500Y-117226500D03*
X141896500Y-119766500D03*
X295884000Y-155326500D03*
X289534000Y-157866500D03*
X305409000Y-174376500D03*
X299059000Y-176916500D03*
X324459000Y-174376500D03*
X318109000Y-176916500D03*
X386371500Y-117226500D03*
X380021500Y-119766500D03*
X67284000Y-93414000D03*
X60934000Y-95954000D03*
X210159000Y-174376500D03*
X203809000Y-176916500D03*
X176821500Y-136276500D03*
X170471500Y-138816500D03*
X224446500Y-93414000D03*
X218096500Y-95954000D03*
X129196500Y-93414000D03*
X122846500Y-95954000D03*
X153009000Y-174376500D03*
X146659000Y-176916500D03*
X48234000Y-136276500D03*
X41884000Y-138816500D03*
X105384000Y-155326500D03*
X99034000Y-157866500D03*
X319696500Y-93414000D03*
X313346500Y-95954000D03*
X383990250Y-155326500D03*
X377640250Y-157866500D03*
X376846500Y-193426500D03*
X370496500Y-195966500D03*
X385895250Y-148341500D03*
X388435250Y-154691500D03*
X67284000Y-112464000D03*
X60934000Y-115004000D03*
X29184000Y-174376500D03*
X22834000Y-176916500D03*
X262546500Y-93414000D03*
X256196500Y-95954000D03*
X133959000Y-136276500D03*
X127609000Y-138816500D03*
X167296500Y-93414000D03*
X160946500Y-95954000D03*
X48234000Y-93414000D03*
X41884000Y-95954000D03*
X86334000Y-174376500D03*
X79984000Y-176916500D03*
X105384000Y-136276500D03*
X99034000Y-138816500D03*
X248259000Y-174376500D03*
X241909000Y-176916500D03*
X357796500Y-93414000D03*
X351446500Y-95954000D03*
X357796500Y-193426500D03*
X351446500Y-195966500D03*
X272071500Y-136276500D03*
X265721500Y-138816500D03*
X86334000Y-112464000D03*
X79984000Y-115004000D03*
X141102750Y-174376500D03*
X134752750Y-176916500D03*
X162534000Y-155326500D03*
X156184000Y-157866500D03*
X291121500Y-136276500D03*
X284771500Y-138816500D03*
X393674000Y-143896500D03*
X391134000Y-137546500D03*
X310171500Y-136276500D03*
X303821500Y-138816500D03*
X238734000Y-155326500D03*
X232384000Y-157866500D03*
X167296500Y-117226500D03*
X160946500Y-119766500D03*
X86334000Y-155326500D03*
X79984000Y-157866500D03*
X357796500Y-117226500D03*
X351446500Y-119766500D03*
X243496500Y-117226500D03*
X237146500Y-119766500D03*
X48234000Y-112464000D03*
X41884000Y-115004000D03*
X129196500Y-193426500D03*
X122846500Y-195966500D03*
X191109000Y-174376500D03*
X184759000Y-176916500D03*
X338746500Y-117226500D03*
X332396500Y-119766500D03*
X267309000Y-174376500D03*
X260959000Y-176916500D03*
X205396500Y-117226500D03*
X199046500Y-119766500D03*
X205396500Y-93414000D03*
X199046500Y-95954000D03*
X314934000Y-155326500D03*
X308584000Y-157866500D03*
X172059000Y-174376500D03*
X165709000Y-176916500D03*
X329221500Y-136276500D03*
X322871500Y-138816500D03*
X86334000Y-136276500D03*
X79984000Y-138816500D03*
X181584000Y-155326500D03*
X175234000Y-157866500D03*
X29184000Y-193426500D03*
X22834000Y-195966500D03*
D18*
X217594411Y-110064480D02*
X211694891Y-115964000D01*
X170947750Y-110400250D02*
X168566500Y-108019000D01*
X209237625Y-115964000D02*
X211694891Y-115964000D01*
X195262500Y-101988875D02*
X209237625Y-115964000D01*
X187616500Y-108019000D02*
X185235250Y-110400250D01*
X189232375Y-108019000D02*
X195262500Y-101988875D01*
X187616500Y-112781500D02*
X187616500Y-108019000D01*
X223671020Y-110064480D02*
X217594411Y-110064480D01*
X185235250Y-110400250D02*
X170947750Y-110400250D01*
X225716500Y-108019000D02*
X223671020Y-110064480D01*
X187616500Y-108019000D02*
X189232375Y-108019000D01*
X218096500Y-95954000D02*
X218096500Y-108019000D01*
X280485250Y-129450250D02*
X266197750Y-129450250D01*
X282866500Y-131831500D02*
X280485250Y-129450250D01*
X285247750Y-129450250D02*
X282866500Y-131831500D01*
X247147750Y-129450250D02*
X244766500Y-131831500D01*
X304297750Y-129450250D02*
X301916500Y-131831500D01*
X318585250Y-129450250D02*
X304297750Y-129450250D01*
X301916500Y-131831500D02*
X299535250Y-129450250D01*
X261435250Y-129450250D02*
X247147750Y-129450250D01*
X263816500Y-131831500D02*
X261435250Y-129450250D01*
X266197750Y-129450250D02*
X263816500Y-131831500D01*
X299535250Y-129450250D02*
X285247750Y-129450250D01*
X320966500Y-131831500D02*
X318585250Y-129450250D01*
X195262500Y-114688875D02*
X178089125Y-114688875D01*
X178089125Y-114688875D02*
X174281500Y-118496500D01*
X206065135Y-114865135D02*
X209694000Y-118494000D01*
X212384000Y-118494000D02*
X218096500Y-112781500D01*
X209694000Y-118494000D02*
X212384000Y-118494000D01*
X199046500Y-119766500D02*
X203947865Y-114865135D01*
X203947865Y-114865135D02*
X206065135Y-114865135D01*
X305811105Y-148202719D02*
X319240831Y-148202719D01*
X372080383Y-126176101D02*
X367381819Y-126176101D01*
X325939843Y-184960105D02*
X329062750Y-181837198D01*
X312484000Y-180815782D02*
X316628323Y-184960105D01*
X322369264Y-151331152D02*
X322369264Y-163792342D01*
X315411154Y-172312936D02*
X303318520Y-160220302D01*
X368539572Y-171863230D02*
X370548427Y-171863230D01*
X302419480Y-156385105D02*
X302419480Y-160592697D01*
X381596938Y-149931062D02*
X381596938Y-147718864D01*
X329062750Y-174694000D02*
X326681686Y-172312936D01*
X325677652Y-167100730D02*
X363777072Y-167100730D01*
X365377666Y-117340334D02*
X381900664Y-100817336D01*
X370548427Y-171863230D02*
X372424480Y-169987177D01*
X201533040Y-159402073D02*
X204338710Y-156596403D01*
X189997750Y-186600250D02*
X192379000Y-188981500D01*
X303318520Y-160220302D02*
X303318520Y-150695304D01*
X352980637Y-90609145D02*
X377773891Y-90609145D01*
X290524000Y-124794000D02*
X294281210Y-128551210D01*
X303318520Y-150695304D02*
X305811105Y-148202719D01*
X204338710Y-156596403D02*
X204338710Y-133925085D01*
X173329000Y-188981500D02*
X175710250Y-186600250D01*
X312484000Y-170657218D02*
X312484000Y-180815782D01*
X372424480Y-159103520D02*
X381596938Y-149931062D01*
X175710250Y-186600250D02*
X189997750Y-186600250D01*
X198094000Y-183266500D02*
X198094000Y-168662936D01*
X381596938Y-147718864D02*
X385134488Y-144181315D01*
X381900664Y-94735918D02*
X377773891Y-90609145D01*
X236194000Y-175646500D02*
X236194000Y-169814000D01*
X316628323Y-184960105D02*
X325939843Y-184960105D01*
X335874000Y-107715782D02*
X352980637Y-90609145D01*
X365377666Y-124171948D02*
X365377666Y-117340334D01*
X372424480Y-169987177D02*
X372424480Y-159103520D01*
X201533040Y-165223896D02*
X201533040Y-159402073D01*
X204338710Y-133925085D02*
X200342500Y-129928875D01*
X335874000Y-113024000D02*
X335874000Y-107715782D01*
X320346790Y-128551210D02*
X335874000Y-113024000D01*
X381900664Y-100817336D02*
X381900664Y-94735918D01*
X253164000Y-152844000D02*
X298878375Y-152844000D01*
X393314000Y-140466657D02*
X393314000Y-135441686D01*
X294281210Y-128551210D02*
X320346790Y-128551210D01*
X363777072Y-167100730D02*
X368539572Y-171863230D01*
X301916500Y-112781500D02*
X297406500Y-112781500D01*
X192379000Y-188981500D02*
X198094000Y-183266500D01*
X367381819Y-126176101D02*
X365377666Y-124171948D01*
X319240831Y-148202719D02*
X322369264Y-151331152D01*
X297406500Y-112781500D02*
X290524000Y-119664000D01*
X390620157Y-132747843D02*
X378652125Y-132747843D01*
X385134488Y-144181315D02*
X389599342Y-144181315D01*
X198094000Y-168662936D02*
X201533040Y-165223896D01*
X298878375Y-152844000D02*
X302419480Y-156385105D01*
X236194000Y-169814000D02*
X253164000Y-152844000D01*
X329062750Y-181837198D02*
X329062750Y-174694000D01*
X290524000Y-119664000D02*
X290524000Y-124794000D01*
X326681686Y-172312936D02*
X315411154Y-172312936D01*
X378652125Y-132747843D02*
X372080383Y-126176101D01*
X393314000Y-135441686D02*
X390620157Y-132747843D01*
X322369264Y-163792342D02*
X325677652Y-167100730D01*
X302419480Y-160592697D02*
X312484000Y-170657218D01*
X389599342Y-144181315D02*
X393314000Y-140466657D01*
X382046458Y-150117260D02*
X382046458Y-147905062D01*
X325491454Y-167550250D02*
X346922125Y-167550250D01*
X372874000Y-170173375D02*
X372874000Y-159289718D01*
X350494000Y-175587979D02*
X358531729Y-167550250D01*
X390789052Y-132281020D02*
X378821020Y-132281020D01*
X372266580Y-125726581D02*
X367568017Y-125726581D01*
X316204000Y-150881500D02*
X321919744Y-156597244D01*
X294772750Y-148500250D02*
X280485250Y-148500250D01*
X393763520Y-135255489D02*
X390789052Y-132281020D01*
X297154000Y-150881500D02*
X294772750Y-148500250D01*
X275722750Y-148500250D02*
X261435250Y-148500250D01*
X385320685Y-144630835D02*
X389785540Y-144630835D01*
X389785540Y-144630835D02*
X393763520Y-140652856D01*
X365827186Y-117526533D02*
X375334718Y-108019000D01*
X261435250Y-148500250D02*
X259054000Y-150881500D01*
X346922125Y-167550250D02*
X350494000Y-171122125D01*
X370734625Y-172312750D02*
X372874000Y-170173375D01*
X378821020Y-132281020D02*
X372266580Y-125726581D01*
X256672750Y-148500250D02*
X242385250Y-148500250D01*
X242385250Y-148500250D02*
X240004000Y-150881500D01*
X367568017Y-125726581D02*
X365827186Y-123985750D01*
X365827186Y-123985750D02*
X365827186Y-117526533D01*
X321919744Y-163978540D02*
X325491454Y-167550250D01*
X375334718Y-108019000D02*
X378116500Y-108019000D01*
X372874000Y-159289718D02*
X382046458Y-150117260D01*
X259054000Y-150881500D02*
X256672750Y-148500250D01*
X393763520Y-140652856D02*
X393763520Y-135255489D01*
X321919744Y-156597244D02*
X321919744Y-163978540D01*
X363590875Y-167550250D02*
X368353375Y-172312750D01*
X368353375Y-172312750D02*
X370734625Y-172312750D01*
X278104000Y-150881500D02*
X275722750Y-148500250D01*
X280485250Y-148500250D02*
X278104000Y-150881500D01*
X382046458Y-147905062D02*
X385320685Y-144630835D01*
X358531729Y-167550250D02*
X363590875Y-167550250D01*
X350494000Y-171122125D02*
X350494000Y-175646500D01*
X188755197Y-190913230D02*
X170895823Y-190913230D01*
X217144000Y-181837750D02*
X225927895Y-190621645D01*
X168554000Y-114924000D02*
X160254000Y-114924000D01*
X160254000Y-114924000D02*
X157315423Y-117862577D01*
X244231267Y-156537516D02*
X240956501Y-153262750D01*
X261938230Y-198320302D02*
X258629677Y-201628855D01*
X190632020Y-115138395D02*
X180629605Y-115138395D01*
X230479000Y-169931500D02*
X235440782Y-169931500D01*
X157315423Y-117862577D02*
X157315423Y-125659705D01*
X258629677Y-201628855D02*
X199470823Y-201628855D01*
X157315423Y-125659705D02*
X164905677Y-133249959D01*
X217144000Y-168027218D02*
X217144000Y-181837750D01*
X169370532Y-158650686D02*
X169370532Y-150435146D01*
X195262500Y-119768875D02*
X190632020Y-115138395D01*
X170234000Y-119704000D02*
X170234000Y-116604000D01*
X164905677Y-145970291D02*
X169370532Y-150435146D01*
X172134000Y-121604000D02*
X170234000Y-119704000D01*
X174164000Y-121604000D02*
X172134000Y-121604000D01*
X170234000Y-116604000D02*
X168554000Y-114924000D01*
X261938230Y-193930198D02*
X261938230Y-198320302D01*
X164905677Y-133249959D02*
X164905677Y-145970291D01*
X180629605Y-115138395D02*
X174164000Y-121604000D01*
X240956501Y-153262750D02*
X231908468Y-153262750D01*
X170895823Y-190913230D02*
X162375250Y-182392657D01*
X162375250Y-182392657D02*
X162375250Y-165645968D01*
X199470823Y-201628855D02*
X188755197Y-190913230D01*
X231908468Y-153262750D02*
X217144000Y-168027218D01*
X244231267Y-161141015D02*
X244231267Y-156537516D01*
X162375250Y-165645968D02*
X169370532Y-158650686D01*
X235440782Y-169931500D02*
X244231267Y-161141015D01*
X225927895Y-190621645D02*
X258629677Y-190621645D01*
X258629677Y-190621645D02*
X261938230Y-193930198D01*
X383831500Y-198506500D02*
X383831500Y-194696500D01*
X374381892Y-185701210D02*
X369916396Y-185701210D01*
X383831500Y-194696500D02*
X385974625Y-192553375D01*
X397666118Y-195984000D02*
X398715250Y-194934868D01*
X348112750Y-178265875D02*
X348112750Y-173265250D01*
X380335017Y-191654335D02*
X374381892Y-185701210D01*
X360387709Y-184960105D02*
X354806980Y-184960105D01*
X210502500Y-95313299D02*
X215656174Y-90159625D01*
X348112750Y-173265250D02*
X344779000Y-169931500D01*
X363218481Y-182129335D02*
X360387709Y-184960105D01*
X369916396Y-185701210D02*
X366344519Y-182129335D01*
X390975250Y-205650250D02*
X383831500Y-198506500D01*
X398715250Y-192553612D02*
X397815973Y-191654335D01*
X354806980Y-184960105D02*
X348112750Y-178265875D01*
X210502500Y-101988875D02*
X210502500Y-95313299D01*
X398715250Y-194934868D02*
X398715250Y-192553612D01*
X366344519Y-182129335D02*
X363218481Y-182129335D01*
X391543375Y-192553375D02*
X394974000Y-195984000D01*
X385974625Y-192553375D02*
X391543375Y-192553375D01*
X394974000Y-195984000D02*
X397666118Y-195984000D01*
X397815973Y-191654335D02*
X380335017Y-191654335D01*
X396928375Y-90159625D02*
X402140395Y-95371645D01*
X402140395Y-200438230D02*
X396928375Y-205650250D01*
X396928375Y-205650250D02*
X390975250Y-205650250D01*
X402140395Y-95371645D02*
X402140395Y-200438230D01*
X215656174Y-90159625D02*
X396928375Y-90159625D01*
X365734000Y-157866500D02*
X367361042Y-156239458D01*
X371330806Y-157727743D02*
X373164539Y-157727743D01*
X391134000Y-133897404D02*
X391134000Y-137546500D01*
X369842521Y-156239458D02*
X371330806Y-157727743D01*
X382168964Y-133197363D02*
X390433959Y-133197363D01*
X367361042Y-156239458D02*
X369842521Y-156239458D01*
X373164539Y-157727743D02*
X378176917Y-152715365D01*
X390433959Y-133197363D02*
X391134000Y-133897404D01*
X378176917Y-137189410D02*
X382168964Y-133197363D01*
X378176917Y-152715365D02*
X378176917Y-137189410D01*
X205237750Y-136594000D02*
X205237750Y-163740250D01*
X109035250Y-167550250D02*
X106654000Y-169931500D01*
X210273900Y-131557850D02*
X210273900Y-129928875D01*
X205237750Y-136594000D02*
X210273900Y-131557850D01*
X139991500Y-167550250D02*
X109035250Y-167550250D01*
X205237750Y-163740250D02*
X211429000Y-169931500D01*
X142372750Y-169931500D02*
X139991500Y-167550250D01*
X165709000Y-169931500D02*
X165709000Y-176916500D01*
X184759000Y-169931500D02*
X184759000Y-176916500D01*
X203809000Y-169931500D02*
X203809000Y-176916500D01*
X222859000Y-169931500D02*
X222859000Y-176916500D01*
X241909000Y-176916500D02*
X241909000Y-169931500D01*
X372877750Y-176916500D02*
X370894440Y-176916500D01*
X380521214Y-191204815D02*
X390836680Y-191204815D01*
X390836680Y-191204815D02*
X392762110Y-189279385D01*
X367163608Y-180647332D02*
X367163608Y-182312706D01*
X370894440Y-176916500D02*
X367163608Y-180647332D01*
X370102592Y-185251690D02*
X374568089Y-185251690D01*
X392762110Y-189279385D02*
X392762110Y-184735860D01*
X392762110Y-184735860D02*
X390022750Y-181996500D01*
X367163608Y-182312706D02*
X370102592Y-185251690D01*
X374568089Y-185251690D02*
X380521214Y-191204815D01*
X107606500Y-203269000D02*
X39026500Y-203269000D01*
X36916201Y-104731799D02*
X29184000Y-112464000D01*
X26644000Y-186600250D02*
X26644000Y-190886500D01*
X26644000Y-190886500D02*
X29184000Y-193426500D01*
X26644000Y-124687750D02*
X26644000Y-133736500D01*
X29184000Y-112464000D02*
X29184000Y-122147750D01*
X26644000Y-152786500D02*
X29184000Y-155326500D01*
X26644000Y-167550250D02*
X26644000Y-171836500D01*
X29184000Y-136276500D02*
X29184000Y-145960250D01*
X48234000Y-93414000D02*
X37995436Y-93414000D01*
X29184000Y-122147750D02*
X26644000Y-124687750D01*
X29184000Y-165010250D02*
X26644000Y-167550250D01*
X29184000Y-145960250D02*
X26644000Y-148500250D01*
X319696500Y-117226500D02*
X326681500Y-110241500D01*
X326681500Y-98494000D02*
X331761500Y-93414000D01*
X37995436Y-93414000D02*
X36916201Y-94493235D01*
X36916201Y-94493235D02*
X36916201Y-104731799D01*
X39026500Y-203269000D02*
X29184000Y-193426500D01*
X26644000Y-148500250D02*
X26644000Y-152786500D01*
X26644000Y-171836500D02*
X29184000Y-174376500D01*
X26644000Y-133736500D02*
X29184000Y-136276500D01*
X29184000Y-174376500D02*
X29184000Y-184060250D01*
X29184000Y-155326500D02*
X29184000Y-165010250D01*
X117449000Y-193426500D02*
X107606500Y-203269000D01*
X129196500Y-193426500D02*
X117449000Y-193426500D01*
X29184000Y-184060250D02*
X26644000Y-186600250D01*
X326681500Y-110241500D02*
X326681500Y-98494000D01*
X331761500Y-93414000D02*
X338746500Y-93414000D01*
X348271500Y-150564000D02*
X353034000Y-155326500D01*
X357796500Y-93414000D02*
X350811500Y-93414000D01*
X45694000Y-133736500D02*
X48234000Y-136276500D01*
X48234000Y-155326500D02*
X48234000Y-165010250D01*
X48234000Y-112464000D02*
X48234000Y-122147750D01*
X48234000Y-174376500D02*
X48234000Y-184060250D01*
X67284000Y-93414000D02*
X60299000Y-93414000D01*
X55219000Y-98494000D02*
X55219000Y-105637750D01*
X48234000Y-193426500D02*
X57626980Y-202819480D01*
X336323520Y-107901980D02*
X336323520Y-114803520D01*
X45694000Y-171836500D02*
X48234000Y-174376500D01*
X45694000Y-190886500D02*
X48234000Y-193426500D01*
X107420302Y-202819480D02*
X118877032Y-191362750D01*
X55219000Y-105637750D02*
X55060250Y-105637750D01*
X48234000Y-184060250D02*
X45694000Y-186600250D01*
X48234000Y-122147750D02*
X45694000Y-124687750D01*
X48234000Y-145960250D02*
X45694000Y-148500250D01*
X45694000Y-152786500D02*
X48234000Y-155326500D01*
X45694000Y-186600250D02*
X45694000Y-190886500D01*
X348271500Y-136276500D02*
X348271500Y-150564000D01*
X48234000Y-136276500D02*
X48234000Y-145960250D01*
X146182750Y-191362750D02*
X148246500Y-193426500D01*
X350811500Y-93414000D02*
X336323520Y-107901980D01*
X60299000Y-93414000D02*
X55219000Y-98494000D01*
X48234000Y-165010250D02*
X45694000Y-167550250D01*
X45694000Y-124687750D02*
X45694000Y-133736500D01*
X118877032Y-191362750D02*
X146182750Y-191362750D01*
X45694000Y-148500250D02*
X45694000Y-152786500D01*
X55060250Y-105637750D02*
X48234000Y-112464000D01*
X45694000Y-167550250D02*
X45694000Y-171836500D01*
X57626980Y-202819480D02*
X107420302Y-202819480D01*
X336323520Y-114803520D02*
X338746500Y-117226500D01*
X67284000Y-155326500D02*
X67284000Y-165010250D01*
X217194355Y-129000730D02*
X360045730Y-129000730D01*
X367321500Y-136276500D02*
X367321500Y-126751500D01*
X67284000Y-174376500D02*
X67284000Y-184060250D01*
X86334000Y-93414000D02*
X79349000Y-93414000D01*
X67284000Y-122147750D02*
X64744000Y-124687750D01*
X364855782Y-117226500D02*
X357796500Y-117226500D01*
X381451144Y-97898686D02*
X381451144Y-100631138D01*
X64744000Y-167550250D02*
X64744000Y-171836500D01*
X64744000Y-186600250D02*
X64744000Y-190886500D01*
X64744000Y-124687750D02*
X64744000Y-133736500D01*
X74269000Y-98494000D02*
X74269000Y-105479000D01*
X67284000Y-165010250D02*
X64744000Y-167550250D01*
X360045730Y-129000730D02*
X367321500Y-136276500D01*
X79349000Y-93414000D02*
X74269000Y-98494000D01*
X381331186Y-97898686D02*
X381451144Y-97898686D01*
X107234104Y-202369960D02*
X76227460Y-202369960D01*
X67284000Y-145960250D02*
X64744000Y-148500250D01*
X64744000Y-152786500D02*
X67284000Y-155326500D01*
X164783230Y-190913230D02*
X118690835Y-190913230D01*
X372084000Y-141039000D02*
X372084000Y-155326500D01*
X67284000Y-112464000D02*
X67284000Y-122147750D01*
X74269000Y-105479000D02*
X67284000Y-112464000D01*
X118690835Y-190913230D02*
X107234104Y-202369960D01*
X64744000Y-171836500D02*
X67284000Y-174376500D01*
X67284000Y-184060250D02*
X64744000Y-186600250D01*
X64744000Y-133736500D02*
X67284000Y-136276500D01*
X367321500Y-126751500D02*
X357796500Y-117226500D01*
X64744000Y-190886500D02*
X67284000Y-193426500D01*
X67284000Y-136276500D02*
X67284000Y-145960250D01*
X64744000Y-148500250D02*
X64744000Y-152786500D01*
X167296500Y-193426500D02*
X164783230Y-190913230D01*
X381451144Y-100631138D02*
X364855782Y-117226500D01*
X210502500Y-122308875D02*
X217194355Y-129000730D01*
X367321500Y-136276500D02*
X372084000Y-141039000D01*
X76227460Y-202369960D02*
X67284000Y-193426500D01*
X376846500Y-93414000D02*
X381331186Y-97898686D01*
X376846500Y-117226500D02*
X390816500Y-103256500D01*
X86334000Y-165010250D02*
X83794000Y-167550250D01*
X93319000Y-98494000D02*
X93319000Y-105479000D01*
X316839000Y-174376500D02*
X302869000Y-160406500D01*
X172137657Y-193426500D02*
X186346500Y-193426500D01*
X86334000Y-136276500D02*
X86334000Y-145960250D01*
X83794000Y-148500250D02*
X83794000Y-152786500D01*
X86334000Y-112464000D02*
X86334000Y-122147750D01*
X302869000Y-160406500D02*
X302869000Y-150881501D01*
X379007218Y-131831500D02*
X390975250Y-131831500D01*
X218600250Y-129450250D02*
X214860250Y-129450250D01*
X376846500Y-129670782D02*
X379007218Y-131831500D01*
X221906500Y-132756500D02*
X218600250Y-129450250D01*
X83794000Y-190886500D02*
X86334000Y-193426500D01*
X212798875Y-127388875D02*
X210502500Y-127388875D01*
X107047906Y-201920440D02*
X118504638Y-190463710D01*
X169174867Y-190463710D02*
X172137657Y-193426500D01*
X383990250Y-150246500D02*
X383990250Y-155326500D01*
X395896500Y-100716500D02*
X395896500Y-93414000D01*
X86334000Y-174376500D02*
X86334000Y-184060250D01*
X86334000Y-193426500D02*
X94827940Y-201920440D01*
X94827940Y-201920440D02*
X107047906Y-201920440D01*
X376846500Y-117226500D02*
X376846500Y-129670782D01*
X83794000Y-124687750D02*
X83794000Y-133736500D01*
X86334000Y-145960250D02*
X83794000Y-148500250D01*
X396333994Y-146416777D02*
X394409271Y-148341500D01*
X394213040Y-135069292D02*
X394213040Y-139830968D01*
X83794000Y-167550250D02*
X83794000Y-171836500D01*
X324459000Y-174376500D02*
X316839000Y-174376500D01*
X396333994Y-141951922D02*
X396333994Y-146416777D01*
X93319000Y-105479000D02*
X86334000Y-112464000D01*
X221906500Y-143439715D02*
X221906500Y-132756500D01*
X394213040Y-139830968D02*
X396333994Y-141951922D01*
X390975250Y-131831500D02*
X394213040Y-135069292D01*
X86334000Y-184060250D02*
X83794000Y-186600250D01*
X118504638Y-190463710D02*
X169174867Y-190463710D01*
X394409271Y-148341500D02*
X385895250Y-148341500D01*
X83794000Y-133736500D02*
X86334000Y-136276500D01*
X300038229Y-148050730D02*
X226517515Y-148050730D01*
X86334000Y-155326500D02*
X86334000Y-165010250D01*
X302869000Y-150881501D02*
X300038229Y-148050730D01*
X214860250Y-129450250D02*
X212798875Y-127388875D01*
X83794000Y-186600250D02*
X83794000Y-190886500D01*
X86334000Y-122147750D02*
X83794000Y-124687750D01*
X226517515Y-148050730D02*
X221906500Y-143439715D01*
X98399000Y-93414000D02*
X93319000Y-98494000D01*
X385895250Y-148341500D02*
X383990250Y-150246500D01*
X105384000Y-93414000D02*
X98399000Y-93414000D01*
X393356500Y-103256500D02*
X395896500Y-100716500D01*
X83794000Y-152786500D02*
X86334000Y-155326500D01*
X83794000Y-171836500D02*
X86334000Y-174376500D01*
X390816500Y-103256500D02*
X393356500Y-103256500D01*
X102844000Y-186600250D02*
X102844000Y-190886500D01*
X102844000Y-190886500D02*
X105384000Y-193426500D01*
X129196500Y-93414000D02*
X119830250Y-93414000D01*
X102844000Y-152786500D02*
X105384000Y-155326500D01*
X105384000Y-174376500D02*
X105384000Y-184060250D01*
X105384000Y-165010250D02*
X102844000Y-167550250D01*
X392165680Y-175884820D02*
X401690875Y-166359625D01*
X119830250Y-93414000D02*
X114750250Y-98494000D01*
X105384000Y-136276500D02*
X105384000Y-145960250D01*
X105384000Y-112464000D02*
X105384000Y-122147750D01*
X102844000Y-124687750D02*
X102844000Y-133736500D01*
X105384000Y-145960250D02*
X102844000Y-148500250D01*
X198543520Y-179906020D02*
X198543520Y-168849134D01*
X212064000Y-193426500D02*
X198543520Y-179906020D01*
X102844000Y-167550250D02*
X102844000Y-171836500D01*
X398417593Y-111590908D02*
X392007092Y-111590908D01*
X105384000Y-155326500D02*
X105384000Y-165010250D01*
X401690875Y-166359625D02*
X401690875Y-114864190D01*
X198543520Y-168849134D02*
X204788230Y-162604424D01*
X207962500Y-133233532D02*
X207962500Y-129928875D01*
X379227750Y-174376500D02*
X380736070Y-175884820D01*
X102844000Y-133736500D02*
X105384000Y-136276500D01*
X114750250Y-98494000D02*
X114750250Y-103097750D01*
X392007092Y-111590908D02*
X386371500Y-117226500D01*
X105384000Y-184060250D02*
X102844000Y-186600250D01*
X253021500Y-193426500D02*
X212064000Y-193426500D01*
X114750250Y-103097750D02*
X105384000Y-112464000D01*
X401690875Y-114864190D02*
X398417593Y-111590908D01*
X102844000Y-171836500D02*
X105384000Y-174376500D01*
X105384000Y-122147750D02*
X102844000Y-124687750D01*
X102844000Y-148500250D02*
X102844000Y-152786500D01*
X204788230Y-162604424D02*
X204788230Y-136407803D01*
X380736070Y-175884820D02*
X392165680Y-175884820D01*
X204788230Y-136407803D02*
X207962500Y-133233532D01*
X227205127Y-172372627D02*
X229209000Y-174376500D01*
X237119770Y-153712270D02*
X232094666Y-153712270D01*
X232094666Y-153712270D02*
X227205127Y-158601809D01*
X231431500Y-110241500D02*
X224446500Y-117226500D01*
X319696500Y-191521500D02*
X319696500Y-193426500D01*
X231114000Y-174376500D02*
X243945205Y-187207705D01*
X199284625Y-202078375D02*
X258815875Y-202078375D01*
X133959000Y-121989000D02*
X133959000Y-136276500D01*
X148068021Y-174376500D02*
X150171655Y-176480134D01*
X148246500Y-93414000D02*
X141261500Y-93414000D01*
X150171655Y-176480134D02*
X155827009Y-176480134D01*
X236194000Y-190172125D02*
X229209000Y-183187125D01*
X131577750Y-174376500D02*
X141102750Y-174376500D01*
X170709625Y-191362750D02*
X155827009Y-176480134D01*
X141261500Y-93414000D02*
X136181500Y-98494000D01*
X258815875Y-202078375D02*
X262387750Y-198506500D01*
X238734000Y-155326500D02*
X237119770Y-153712270D01*
X133959000Y-136276500D02*
X133959000Y-152945250D01*
X315382705Y-187207705D02*
X319696500Y-191521500D01*
X188569000Y-191362750D02*
X199284625Y-202078375D01*
X227205127Y-158601809D02*
X227205127Y-172372627D01*
X236511500Y-93414000D02*
X231431500Y-98494000D01*
X136181500Y-110241500D02*
X129196500Y-117226500D01*
X243496500Y-93414000D02*
X236511500Y-93414000D01*
X136181500Y-98494000D02*
X136181500Y-110241500D01*
X262387750Y-198506500D02*
X262387750Y-193744000D01*
X258815875Y-190172125D02*
X236194000Y-190172125D01*
X129196500Y-117226500D02*
X133959000Y-121989000D01*
X262387750Y-193744000D02*
X258815875Y-190172125D01*
X229209000Y-174376500D02*
X231114000Y-174376500D01*
X133959000Y-152945250D02*
X136340250Y-155326500D01*
X231431500Y-98494000D02*
X231431500Y-110241500D01*
X170709625Y-191362750D02*
X188569000Y-191362750D01*
X229209000Y-183187125D02*
X229209000Y-174376500D01*
X141102750Y-174376500D02*
X148068021Y-174376500D01*
X243945205Y-187207705D02*
X315382705Y-187207705D01*
X162534000Y-164851500D02*
X162534000Y-155326500D01*
X157771500Y-126751500D02*
X148246500Y-117226500D01*
X260640685Y-186758185D02*
X333983185Y-186758185D01*
X167296500Y-93414000D02*
X160311500Y-93414000D01*
X250481500Y-110241500D02*
X243496500Y-117226500D01*
X155231500Y-110241500D02*
X148246500Y-117226500D01*
X157771500Y-150564000D02*
X162534000Y-155326500D01*
X160311500Y-93414000D02*
X155231500Y-98494000D01*
X157771500Y-136276500D02*
X157771500Y-126751500D01*
X262546500Y-93414000D02*
X255561500Y-93414000D01*
X257784000Y-155326500D02*
X257784000Y-164851500D01*
X255561500Y-93414000D02*
X250481500Y-98494000D01*
X153009000Y-174376500D02*
X162534000Y-164851500D01*
X333983185Y-186758185D02*
X338746500Y-191521500D01*
X257784000Y-164851500D02*
X248259000Y-174376500D01*
X250481500Y-98494000D02*
X250481500Y-110241500D01*
X155231500Y-98494000D02*
X155231500Y-110241500D01*
X157771500Y-136276500D02*
X157771500Y-150564000D01*
X338746500Y-191521500D02*
X338746500Y-193426500D01*
X248259000Y-174376500D02*
X260640685Y-186758185D01*
X276834000Y-164851500D02*
X267309000Y-174376500D01*
X181584000Y-164851500D02*
X181584000Y-155326500D01*
X201083520Y-165037698D02*
X201083520Y-159215875D01*
X203889190Y-156410205D02*
X203889190Y-141198565D01*
X181584000Y-155326500D02*
X176821500Y-150564000D01*
X167296500Y-126751500D02*
X176821500Y-136276500D01*
X193331500Y-129319875D02*
X195262500Y-127388875D01*
X276834000Y-155326500D02*
X276834000Y-164851500D01*
X269531500Y-110241500D02*
X262546500Y-117226500D01*
X197644480Y-183080302D02*
X197644480Y-168476738D01*
X194574052Y-186150730D02*
X197644480Y-183080302D01*
X281596500Y-93414000D02*
X274611500Y-93414000D01*
X176821500Y-150564000D02*
X176821500Y-136276500D01*
X269531500Y-98494000D02*
X269531500Y-110241500D01*
X279241165Y-186308665D02*
X352583665Y-186308665D01*
X274611500Y-93414000D02*
X269531500Y-98494000D01*
X352583665Y-186308665D02*
X357796500Y-191521500D01*
X203889190Y-141198565D02*
X193331500Y-130640875D01*
X172059000Y-174376500D02*
X183833230Y-186150730D01*
X193331500Y-130640875D02*
X193331500Y-129319875D01*
X267309000Y-174376500D02*
X279241165Y-186308665D01*
X197644480Y-168476738D02*
X201083520Y-165037698D01*
X172059000Y-174376500D02*
X181584000Y-164851500D01*
X201083520Y-159215875D02*
X203889190Y-156410205D01*
X183833230Y-186150730D02*
X194574052Y-186150730D01*
X357796500Y-191521500D02*
X357796500Y-193426500D01*
X167296500Y-117226500D02*
X167296500Y-126751500D01*
X363590875Y-183028375D02*
X365972125Y-183028375D01*
X360760105Y-185859145D02*
X363590875Y-183028375D01*
X293661500Y-93414000D02*
X288581500Y-98494000D01*
X295884000Y-164851500D02*
X286359000Y-174376500D01*
X300646500Y-93414000D02*
X293661500Y-93414000D01*
X200634000Y-164851500D02*
X191109000Y-174376500D01*
X369544000Y-186600250D02*
X374009497Y-186600250D01*
X186346500Y-126751500D02*
X195871500Y-136276500D01*
X195871500Y-150564000D02*
X200634000Y-155326500D01*
X297841645Y-185859145D02*
X360760105Y-185859145D01*
X295884000Y-155326500D02*
X295884000Y-164851500D01*
X186346500Y-117226500D02*
X186346500Y-126751500D01*
X286359000Y-174376500D02*
X297841645Y-185859145D01*
X376846500Y-189437253D02*
X376846500Y-193426500D01*
X195871500Y-136276500D02*
X195871500Y-150564000D01*
X288581500Y-98494000D02*
X288581500Y-110241500D01*
X200634000Y-155326500D02*
X200634000Y-164851500D01*
X195262500Y-122308875D02*
X191428875Y-122308875D01*
X365972125Y-183028375D02*
X369544000Y-186600250D01*
X374009497Y-186600250D02*
X376846500Y-189437253D01*
X288581500Y-110241500D02*
X281596500Y-117226500D01*
X191428875Y-122308875D02*
X186346500Y-117226500D01*
X360573907Y-185409625D02*
X363404678Y-182578855D01*
X380148819Y-192103855D02*
X394573855Y-192103855D01*
X316442125Y-185409625D02*
X360573907Y-185409625D01*
X226614000Y-110514000D02*
X222924000Y-110514000D01*
X369730198Y-186150730D02*
X374195694Y-186150730D01*
X227251355Y-90609145D02*
X316891645Y-90609145D01*
X227784000Y-109344000D02*
X226614000Y-110514000D01*
X227784000Y-105561636D02*
X227784000Y-109344000D01*
X394573855Y-192103855D02*
X395896500Y-193426500D01*
X224446500Y-93414000D02*
X224446500Y-102224136D01*
X209184000Y-121014000D02*
X205396500Y-117226500D01*
X305409000Y-174376500D02*
X316442125Y-185409625D01*
X307631500Y-98494000D02*
X312711500Y-93414000D01*
X219684000Y-155326500D02*
X219684000Y-164851500D01*
X205396500Y-117226500D02*
X205396500Y-125016500D01*
X300646500Y-117226500D02*
X307631500Y-110241500D01*
X209044000Y-128664000D02*
X213438282Y-128664000D01*
X219684000Y-164851500D02*
X210159000Y-174376500D01*
X224446500Y-93414000D02*
X227251355Y-90609145D01*
X366158322Y-182578855D02*
X369730198Y-186150730D01*
X374195694Y-186150730D02*
X380148819Y-192103855D01*
X214921500Y-130147218D02*
X214921500Y-136276500D01*
X224446500Y-102224136D02*
X227784000Y-105561636D01*
X312711500Y-93414000D02*
X319696500Y-93414000D01*
X363404678Y-182578855D02*
X366158322Y-182578855D01*
X205396500Y-125016500D02*
X209044000Y-128664000D01*
X222924000Y-110514000D02*
X212424000Y-121014000D01*
X316891645Y-90609145D02*
X319696500Y-93414000D01*
X213438282Y-128664000D02*
X214921500Y-130147218D01*
X212424000Y-121014000D02*
X209184000Y-121014000D01*
X307631500Y-110241500D02*
X307631500Y-98494000D01*
X36466681Y-94307037D02*
X39265533Y-91508185D01*
X34144000Y-100994000D02*
X36466681Y-98671319D01*
X39265533Y-91508185D02*
X187321810Y-91508185D01*
X187321810Y-91508185D02*
X210502500Y-114688875D01*
X36466681Y-98671319D02*
X36466681Y-94307037D01*
X187508007Y-91058665D02*
X208598218Y-112148875D01*
X39079335Y-91058665D02*
X187508007Y-91058665D01*
X34144000Y-95994000D02*
X39079335Y-91058665D01*
X208598218Y-112148875D02*
X210502500Y-112148875D01*
X30513541Y-94124459D02*
X30513541Y-97303372D01*
X31704169Y-98494000D02*
X34144000Y-98494000D01*
X34028855Y-90609145D02*
X30513541Y-94124459D01*
X30513541Y-97303372D02*
X31704169Y-98494000D01*
X206499904Y-90609145D02*
X34028855Y-90609145D01*
X210502500Y-109608875D02*
X205681157Y-104787532D01*
X205681157Y-96820012D02*
X208062907Y-94438262D01*
X208062907Y-94438262D02*
X208062907Y-92172148D01*
X205681157Y-104787532D02*
X205681157Y-96820012D01*
X208062907Y-92172148D02*
X206499904Y-90609145D01*
X210502500Y-104528875D02*
X206580197Y-100606572D01*
X208961947Y-91799752D02*
X206872300Y-89710105D01*
X25927895Y-89710105D02*
X19644000Y-95994000D01*
X208961947Y-94810656D02*
X208961947Y-91799752D01*
X206580197Y-100606572D02*
X206580197Y-97192407D01*
X206580197Y-97192407D02*
X208961947Y-94810656D01*
X206872300Y-89710105D02*
X25927895Y-89710105D01*
X210502500Y-107068875D02*
X206130677Y-102697052D01*
X23008282Y-100994000D02*
X19644000Y-100994000D01*
X208512427Y-94624459D02*
X208512427Y-91985950D01*
X33842657Y-90159625D02*
X23008282Y-100994000D01*
X208512427Y-91985950D02*
X206686102Y-90159625D01*
X206130677Y-102697052D02*
X206130677Y-97006209D01*
X206686102Y-90159625D02*
X33842657Y-90159625D01*
X206130677Y-97006209D02*
X208512427Y-94624459D01*
M02*
